<svg width="717" height="1289" viewBox="0 0 717 1289" fill="none" xmlns="http://www.w3.org/2000/svg">
<rect x="57.5" y="136.5" width="460" height="271" rx="21.5" fill="#F3F0EC" stroke="#171717" stroke-width="5"/>
<path d="M241.652 280.273C241.652 279.336 241.435 278.545 241.001 277.901C240.582 277.257 240.036 276.711 239.364 276.263C238.692 275.829 237.95 275.465 237.138 275.171C236.34 274.877 235.57 274.611 234.829 274.374C233.751 274.024 232.652 273.604 231.532 273.114C230.426 272.61 229.419 272.008 228.509 271.308C227.585 270.594 226.829 269.754 226.241 268.789C225.667 267.809 225.38 266.661 225.38 265.345C225.38 264.029 225.667 262.854 226.241 261.818C226.829 260.782 227.592 259.907 228.53 259.193C229.468 258.479 230.531 257.941 231.721 257.577C232.911 257.199 234.108 257.01 235.312 257.01C236.641 257.01 237.922 257.234 239.154 257.682C240.386 258.116 241.477 258.731 242.429 259.529C243.381 260.327 244.144 261.293 244.718 262.427C245.292 263.561 245.593 264.827 245.621 266.227H241.631C241.519 265.345 241.302 264.547 240.98 263.833C240.659 263.106 240.232 262.483 239.7 261.965C239.168 261.447 238.531 261.048 237.789 260.768C237.061 260.474 236.235 260.327 235.312 260.327C234.57 260.327 233.842 260.432 233.128 260.642C232.428 260.852 231.805 261.167 231.259 261.587C230.699 262.007 230.251 262.525 229.916 263.141C229.594 263.757 229.433 264.47 229.433 265.282C229.447 266.164 229.671 266.913 230.104 267.529C230.538 268.131 231.091 268.642 231.763 269.062C232.421 269.481 233.135 269.831 233.905 270.111C234.689 270.391 235.424 270.636 236.109 270.846C237.243 271.196 238.377 271.623 239.511 272.127C240.645 272.617 241.68 273.247 242.618 274.017C243.542 274.73 244.284 275.605 244.844 276.641C245.418 277.677 245.705 278.874 245.705 280.231C245.705 281.603 245.397 282.8 244.781 283.822C244.179 284.844 243.395 285.69 242.429 286.362C241.463 287.048 240.372 287.566 239.154 287.916C237.936 288.252 236.718 288.42 235.5 288.42C234.045 288.42 232.61 288.175 231.196 287.685C229.797 287.195 228.579 286.488 227.543 285.564C226.619 284.767 225.884 283.836 225.338 282.772C224.806 281.694 224.52 280.497 224.478 279.182H228.446C228.572 280.133 228.831 280.98 229.223 281.722C229.615 282.45 230.118 283.066 230.734 283.57C231.35 284.088 232.057 284.48 232.855 284.746C233.667 284.998 234.549 285.124 235.5 285.124C236.256 285.124 236.998 285.033 237.726 284.851C238.468 284.655 239.126 284.354 239.7 283.948C240.274 283.556 240.743 283.059 241.106 282.457C241.47 281.841 241.652 281.113 241.652 280.273ZM260.675 259.781V265.282H269.325V268.285H260.675V280.63C260.675 281.512 260.787 282.24 261.011 282.814C261.235 283.388 261.543 283.843 261.935 284.179C262.326 284.529 262.774 284.774 263.278 284.914C263.796 285.054 264.342 285.124 264.916 285.124C265.336 285.124 265.77 285.103 266.218 285.061C266.666 285.005 267.107 284.942 267.541 284.872C267.96 284.802 268.352 284.732 268.716 284.662C269.094 284.578 269.402 284.508 269.64 284.452L270.186 287.202C269.864 287.398 269.472 287.573 269.01 287.727C268.548 287.867 268.044 287.986 267.499 288.084C266.953 288.196 266.372 288.28 265.756 288.336C265.154 288.392 264.552 288.42 263.95 288.42C262.942 288.42 261.998 288.28 261.116 288C260.248 287.706 259.492 287.244 258.848 286.614C258.204 285.998 257.693 285.201 257.315 284.221C256.951 283.227 256.77 282.03 256.77 280.63V268.285H250.807V265.282H256.77V259.781H260.675ZM292.232 288C292.078 287.706 291.952 287.342 291.854 286.908C291.77 286.46 291.707 285.998 291.665 285.522C291.273 285.914 290.832 286.285 290.342 286.635C289.866 286.985 289.341 287.293 288.768 287.559C288.18 287.825 287.557 288.035 286.899 288.189C286.241 288.343 285.541 288.42 284.799 288.42C283.596 288.42 282.504 288.245 281.524 287.895C280.558 287.545 279.739 287.069 279.067 286.467C278.382 285.879 277.85 285.18 277.472 284.368C277.108 283.542 276.926 282.653 276.926 281.701C276.926 280.455 277.171 279.364 277.661 278.426C278.165 277.488 278.871 276.704 279.781 276.074C280.691 275.458 281.783 274.996 283.057 274.688C284.344 274.381 285.779 274.227 287.361 274.227H291.602V272.442C291.602 271.756 291.476 271.14 291.224 270.594C290.972 270.048 290.615 269.579 290.153 269.188C289.691 268.81 289.125 268.516 288.453 268.306C287.795 268.096 287.053 267.991 286.227 267.991C285.457 267.991 284.764 268.089 284.148 268.285C283.547 268.481 283.036 268.74 282.616 269.062C282.196 269.383 281.867 269.768 281.629 270.216C281.405 270.65 281.293 271.105 281.293 271.581H277.388C277.402 270.755 277.612 269.943 278.018 269.146C278.438 268.348 279.039 267.627 279.823 266.983C280.593 266.353 281.531 265.842 282.637 265.45C283.757 265.058 285.023 264.862 286.437 264.862C287.725 264.862 288.922 265.023 290.027 265.345C291.133 265.653 292.092 266.122 292.904 266.752C293.702 267.396 294.332 268.194 294.793 269.146C295.255 270.097 295.486 271.21 295.486 272.484V283.045C295.486 283.801 295.556 284.606 295.696 285.459C295.836 286.299 296.032 287.034 296.284 287.664V288H292.232ZM285.366 285.04C286.122 285.04 286.829 284.942 287.487 284.746C288.145 284.55 288.747 284.291 289.292 283.969C289.824 283.647 290.286 283.283 290.678 282.877C291.07 282.457 291.378 282.023 291.602 281.575V276.977H287.991C286.647 276.977 285.471 277.096 284.463 277.334C283.47 277.558 282.679 277.908 282.091 278.384C281.671 278.72 281.349 279.119 281.125 279.581C280.915 280.042 280.81 280.567 280.81 281.155C280.81 281.715 280.901 282.233 281.083 282.709C281.279 283.185 281.566 283.591 281.944 283.927C282.322 284.277 282.798 284.55 283.372 284.746C283.945 284.942 284.61 285.04 285.366 285.04ZM312.325 259.781V265.282H320.976V268.285H312.325V280.63C312.325 281.512 312.437 282.24 312.661 282.814C312.885 283.388 313.193 283.843 313.585 284.179C313.977 284.529 314.425 284.774 314.929 284.914C315.447 285.054 315.993 285.124 316.566 285.124C316.986 285.124 317.42 285.103 317.868 285.061C318.316 285.005 318.757 284.942 319.191 284.872C319.611 284.802 320.003 284.732 320.367 284.662C320.745 284.578 321.053 284.508 321.291 284.452L321.836 287.202C321.514 287.398 321.123 287.573 320.661 287.727C320.199 287.867 319.695 287.986 319.149 288.084C318.603 288.196 318.022 288.28 317.406 288.336C316.804 288.392 316.202 288.42 315.601 288.42C314.593 288.42 313.648 288.28 312.766 288C311.898 287.706 311.142 287.244 310.499 286.614C309.855 285.998 309.344 285.201 308.966 284.221C308.602 283.227 308.42 282.03 308.42 280.63V268.285H302.457V265.282H308.42V259.781H312.325ZM338.99 288.42C337.395 288.42 335.925 288.147 334.581 287.601C333.251 287.055 332.111 286.292 331.159 285.312C330.207 284.333 329.465 283.171 328.933 281.827C328.401 280.483 328.135 279.021 328.135 277.439V276.557C328.135 274.723 328.429 273.086 329.017 271.644C329.605 270.188 330.389 268.957 331.369 267.949C332.334 266.955 333.433 266.192 334.665 265.66C335.911 265.128 337.185 264.862 338.486 264.862C340.124 264.862 341.552 265.149 342.77 265.723C344.001 266.283 345.023 267.06 345.835 268.054C346.647 269.062 347.249 270.244 347.641 271.602C348.047 272.96 348.25 274.43 348.25 276.011V277.754H332.02V277.901C332.118 279.007 332.334 279.979 332.67 280.819C333.02 281.659 333.496 282.401 334.098 283.045C334.714 283.731 335.456 284.27 336.324 284.662C337.192 285.054 338.15 285.25 339.2 285.25C340.586 285.25 341.818 284.97 342.896 284.41C343.973 283.85 344.869 283.108 345.583 282.184L347.956 284.032C347.2 285.18 346.066 286.201 344.554 287.097C343.056 287.979 341.202 288.42 338.99 288.42ZM338.486 268.054C337.702 268.054 336.961 268.201 336.261 268.495C335.561 268.775 334.931 269.188 334.371 269.733C333.811 270.293 333.335 270.979 332.943 271.791C332.565 272.589 332.299 273.513 332.146 274.562H344.365V274.374C344.365 273.674 344.232 272.925 343.966 272.127C343.7 271.315 343.329 270.615 342.854 270.027C342.378 269.439 341.776 268.964 341.048 268.6C340.334 268.236 339.48 268.054 338.486 268.054Z" fill="#171717"/>
<path d="M86.3369 554.5H488.772C502.896 554.5 513.182 567.886 509.548 581.533L448.831 809.533C446.324 818.948 437.798 825.5 428.055 825.5H147.881C138.165 825.5 129.656 818.983 127.124 809.603L65.5801 581.603C61.892 567.939 72.1839 554.5 86.3369 554.5Z" fill="#F3F0EC" stroke="#171717" stroke-width="5"/>
<path d="M246.149 706L236.491 675.43H240.648L247.367 698.252L247.808 699.743L248.27 698.21L255.03 675.43H259.167L249.529 706H246.149ZM265.087 683.282H276.698V702.641H284.11V706H265.087V702.641H272.814V686.663H265.087V683.282ZM272.31 677.319C272.31 676.983 272.359 676.668 272.457 676.375C272.569 676.081 272.737 675.829 272.961 675.619C273.143 675.437 273.374 675.297 273.654 675.199C273.948 675.087 274.277 675.031 274.641 675.031C275.005 675.031 275.326 675.087 275.606 675.199C275.886 675.297 276.117 675.437 276.299 675.619C276.523 675.815 276.691 676.06 276.803 676.354C276.915 676.647 276.971 676.969 276.971 677.319C276.971 677.949 276.775 678.474 276.383 678.894C275.991 679.314 275.41 679.524 274.641 679.524C273.857 679.524 273.269 679.314 272.877 678.894C272.499 678.474 272.31 677.949 272.31 677.319ZM300.34 706.42C298.744 706.42 297.274 706.147 295.931 705.601C294.601 705.055 293.46 704.292 292.508 703.312C291.556 702.333 290.815 701.171 290.283 699.827C289.751 698.483 289.485 697.021 289.485 695.439V694.557C289.485 692.723 289.779 691.086 290.367 689.644C290.955 688.188 291.738 686.957 292.718 685.949C293.684 684.955 294.783 684.192 296.015 683.66C297.26 683.128 298.534 682.862 299.836 682.862C301.474 682.862 302.901 683.149 304.119 683.723C305.351 684.283 306.373 685.06 307.185 686.054C307.996 687.062 308.598 688.244 308.99 689.602C309.396 690.96 309.599 692.43 309.599 694.011V695.754H293.369V695.901C293.467 697.007 293.684 697.979 294.02 698.819C294.37 699.659 294.846 700.401 295.448 701.045C296.064 701.731 296.806 702.27 297.673 702.662C298.541 703.054 299.5 703.25 300.55 703.25C301.936 703.25 303.167 702.97 304.245 702.41C305.323 701.85 306.219 701.108 306.933 700.184L309.305 702.032C308.549 703.18 307.416 704.201 305.904 705.097C304.406 705.979 302.551 706.42 300.34 706.42ZM299.836 686.054C299.052 686.054 298.31 686.201 297.61 686.495C296.91 686.775 296.281 687.188 295.721 687.733C295.161 688.293 294.685 688.979 294.293 689.791C293.915 690.589 293.649 691.513 293.495 692.562H305.715V692.374C305.715 691.674 305.582 690.925 305.316 690.127C305.05 689.315 304.679 688.615 304.203 688.027C303.727 687.439 303.125 686.964 302.397 686.6C301.684 686.236 300.83 686.054 299.836 686.054ZM318.312 706L313.483 683.282H316.927L319.572 697.77L320.034 701.024L320.601 697.77L324.233 683.282H326.732L330.343 697.77L330.952 701.339L331.519 697.77L334.039 683.282H337.482L332.653 706H329.587L326.039 692.08L325.451 688.552L324.884 692.08L321.378 706H318.312Z" fill="#171717"/>
<rect x="131.5" y="972.5" width="312" height="271" rx="21.5" fill="#F3F0EC" stroke="#171717" stroke-width="5"/>
<path d="M283.844 1093.43L283.886 1114.13C283.886 1115.56 283.634 1116.9 283.13 1118.14C282.626 1119.39 281.933 1120.47 281.051 1121.4C280.169 1122.33 279.12 1123.08 277.902 1123.62C276.684 1124.15 275.347 1124.42 273.892 1124.42C272.408 1124.42 271.057 1124.15 269.839 1123.62C268.622 1123.09 267.579 1122.36 266.711 1121.42C265.843 1120.49 265.164 1119.41 264.674 1118.16C264.184 1116.9 263.932 1115.56 263.918 1114.13L263.96 1093.43H267.656L267.74 1114.13C267.754 1115.04 267.894 1115.92 268.16 1116.76C268.44 1117.6 268.839 1118.34 269.356 1118.98C269.86 1119.63 270.49 1120.14 271.246 1120.54C272.016 1120.93 272.898 1121.12 273.892 1121.12C274.885 1121.12 275.76 1120.93 276.516 1120.56C277.272 1120.16 277.909 1119.64 278.427 1118.98C278.931 1118.34 279.316 1117.6 279.582 1116.76C279.847 1115.92 279.994 1115.04 280.022 1114.13L280.085 1093.43H283.844ZM290.479 1093.43H308.955V1096.81H301.627V1120.64H308.955V1124H290.479V1120.64H297.638V1096.81H290.479V1093.43Z" fill="#171717"/>
<path d="M289.5 422C289.5 420.619 288.381 419.5 287 419.5C285.619 419.5 284.5 420.619 284.5 422H287H289.5ZM285.232 540.768C286.209 541.744 287.791 541.744 288.768 540.768L304.678 524.858C305.654 523.882 305.654 522.299 304.678 521.322C303.701 520.346 302.118 520.346 301.142 521.322L287 535.464L272.858 521.322C271.882 520.346 270.299 520.346 269.322 521.322C268.346 522.299 268.346 523.882 269.322 524.858L285.232 540.768ZM287 422H284.5V539H287H289.5V422H287Z" fill="#CCCCCC"/>
<path d="M289.5 43C289.5 41.6193 288.381 40.5 287 40.5C285.619 40.5 284.5 41.6193 284.5 43H287H289.5ZM285.232 121.768C286.209 122.744 287.791 122.744 288.768 121.768L304.678 105.858C305.654 104.882 305.654 103.299 304.678 102.322C303.701 101.346 302.118 101.346 301.142 102.322L287 116.464L272.858 102.322C271.882 101.346 270.299 101.346 269.322 102.322C268.346 103.299 268.346 104.882 269.322 105.858L285.232 121.768ZM284.5 47.8125V50.3125H289.5V47.8125H287H284.5ZM289.5 57.4375V54.9375H284.5V57.4375H287H289.5ZM284.5 67.0625V69.5625H289.5V67.0625H287H284.5ZM289.5 76.6875V74.1875H284.5V76.6875H287H289.5ZM284.5 86.3125V88.8125H289.5V86.3125H287H284.5ZM289.5 95.9375V93.4375H284.5V95.9375H287H289.5ZM284.5 105.562V108.062H289.5V105.562H287H284.5ZM289.5 115.188V112.688H284.5V115.188H287H289.5ZM287 43H284.5V47.8125H287H289.5V43H287ZM287 57.4375H284.5V67.0625H287H289.5V57.4375H287ZM287 76.6875H284.5V86.3125H287H289.5V76.6875H287ZM287 95.9375H284.5V105.562H287H289.5V95.9375H287ZM287 115.188H284.5V120H287H289.5V115.188H287Z" fill="#CCCCCC"/>
<path d="M289.5 840C289.5 838.619 288.381 837.5 287 837.5C285.619 837.5 284.5 838.619 284.5 840H287H289.5ZM285.232 958.768C286.209 959.744 287.791 959.744 288.768 958.768L304.678 942.858C305.654 941.882 305.654 940.299 304.678 939.322C303.701 938.346 302.118 938.346 301.142 939.322L287 953.464L272.858 939.322C271.882 938.346 270.299 938.346 269.322 939.322C268.346 940.299 268.346 941.882 269.322 942.858L285.232 958.768ZM287 840H284.5V957H287H289.5V840H287Z" fill="#CCCCCC"/>
<path d="M645 274.5C646.381 274.5 647.5 273.381 647.5 272C647.5 270.619 646.381 269.5 645 269.5V272V274.5ZM538.232 270.232C537.256 271.209 537.256 272.791 538.232 273.768L554.142 289.678C555.118 290.654 556.701 290.654 557.678 289.678C558.654 288.701 558.654 287.118 557.678 286.142L543.536 272L557.678 257.858C558.654 256.882 558.654 255.299 557.678 254.322C556.701 253.346 555.118 253.346 554.142 254.322L538.232 270.232ZM639.75 269.5H637.25V274.5H639.75V272V269.5ZM629.25 274.5H631.75V269.5H629.25V272V274.5ZM618.75 269.5H616.25V274.5H618.75V272V269.5ZM608.25 274.5H610.75V269.5H608.25V272V274.5ZM597.75 269.5H595.25V274.5H597.75V272V269.5ZM587.25 274.5H589.75V269.5H587.25V272V274.5ZM576.75 269.5H574.25V274.5H576.75V272V269.5ZM566.25 274.5H568.75V269.5H566.25V272V274.5ZM555.75 269.5H553.25V274.5H555.75V272V269.5ZM545.25 274.5H547.75V269.5H545.25V272V274.5ZM645 272V269.5H639.75V272V274.5H645V272ZM629.25 272V269.5H618.75V272V274.5H629.25V272ZM608.25 272V269.5H597.75V272V274.5H608.25V272ZM587.25 272V269.5H576.75V272V274.5H587.25V272ZM566.25 272V269.5H555.75V272V274.5H566.25V272ZM545.25 272V269.5H540V272V274.5H545.25V272Z" fill="#CCCCCC"/>
<path d="M645 1108H465" stroke="#CCCCCC" stroke-width="5" stroke-linecap="round" stroke-dasharray="10 10"/>
<path d="M645 272V1108" stroke="#CCCCCC" stroke-width="5" stroke-linecap="round" stroke-dasharray="10 10"/>
</svg>
