<svg width="682" height="992" viewBox="0 0 682 992" fill="none" xmlns="http://www.w3.org/2000/svg">
<rect x="115.5" y="81.5" width="365" height="227" rx="21.5" fill="#F3F0EC" stroke="#171717" stroke-width="5"/>
<rect x="81.5" y="425.5" width="433" height="250" rx="21.5" fill="#F3F0EC" stroke="#171717" stroke-width="5"/>
<path d="M240.652 203.273C240.652 202.336 240.435 201.545 240.001 200.901C239.582 200.257 239.036 199.711 238.364 199.263C237.692 198.829 236.95 198.465 236.138 198.171C235.34 197.877 234.57 197.611 233.829 197.374C232.751 197.024 231.652 196.604 230.532 196.114C229.426 195.61 228.419 195.008 227.509 194.308C226.585 193.594 225.829 192.754 225.241 191.789C224.667 190.809 224.38 189.661 224.38 188.345C224.38 187.029 224.667 185.854 225.241 184.818C225.829 183.782 226.592 182.907 227.53 182.193C228.468 181.479 229.531 180.941 230.721 180.577C231.911 180.199 233.108 180.01 234.312 180.01C235.641 180.01 236.922 180.234 238.154 180.682C239.386 181.116 240.477 181.731 241.429 182.529C242.381 183.327 243.144 184.293 243.718 185.427C244.292 186.561 244.593 187.827 244.621 189.227H240.631C240.519 188.345 240.302 187.547 239.98 186.833C239.659 186.106 239.232 185.483 238.7 184.965C238.168 184.447 237.531 184.048 236.789 183.768C236.061 183.474 235.235 183.327 234.312 183.327C233.57 183.327 232.842 183.432 232.128 183.642C231.428 183.852 230.805 184.167 230.259 184.587C229.699 185.007 229.251 185.525 228.916 186.141C228.594 186.757 228.433 187.47 228.433 188.282C228.447 189.164 228.671 189.913 229.104 190.529C229.538 191.131 230.091 191.642 230.763 192.062C231.421 192.481 232.135 192.831 232.905 193.111C233.689 193.391 234.424 193.636 235.109 193.846C236.243 194.196 237.377 194.623 238.511 195.127C239.645 195.617 240.68 196.247 241.618 197.017C242.542 197.73 243.284 198.605 243.844 199.641C244.418 200.677 244.705 201.874 244.705 203.231C244.705 204.603 244.397 205.8 243.781 206.822C243.179 207.844 242.395 208.69 241.429 209.362C240.463 210.048 239.372 210.566 238.154 210.916C236.936 211.252 235.718 211.42 234.5 211.42C233.045 211.42 231.61 211.175 230.196 210.685C228.797 210.195 227.579 209.488 226.543 208.564C225.619 207.767 224.884 206.836 224.338 205.772C223.806 204.694 223.52 203.497 223.478 202.182H227.446C227.572 203.133 227.831 203.98 228.223 204.722C228.615 205.45 229.118 206.066 229.734 206.57C230.35 207.088 231.057 207.48 231.855 207.746C232.667 207.998 233.549 208.124 234.5 208.124C235.256 208.124 235.998 208.033 236.726 207.851C237.468 207.655 238.126 207.354 238.7 206.948C239.274 206.556 239.743 206.059 240.106 205.457C240.47 204.841 240.652 204.113 240.652 203.273ZM260.515 211.42C258.919 211.42 257.449 211.147 256.105 210.601C254.776 210.055 253.635 209.292 252.683 208.312C251.731 207.333 250.989 206.171 250.458 204.827C249.926 203.483 249.66 202.021 249.66 200.439V199.557C249.66 197.723 249.954 196.086 250.542 194.644C251.129 193.188 251.913 191.957 252.893 190.949C253.859 189.955 254.958 189.192 256.189 188.66C257.435 188.128 258.709 187.862 260.011 187.862C261.648 187.862 263.076 188.149 264.294 188.723C265.526 189.283 266.548 190.06 267.359 191.054C268.171 192.062 268.773 193.244 269.165 194.602C269.571 195.96 269.774 197.43 269.774 199.011V200.754H253.544V200.901C253.642 202.007 253.859 202.979 254.195 203.819C254.545 204.659 255.021 205.401 255.623 206.045C256.238 206.731 256.98 207.27 257.848 207.662C258.716 208.054 259.675 208.25 260.725 208.25C262.11 208.25 263.342 207.97 264.42 207.41C265.498 206.85 266.394 206.108 267.107 205.184L269.48 207.032C268.724 208.18 267.59 209.201 266.079 210.097C264.581 210.979 262.726 211.42 260.515 211.42ZM260.011 191.054C259.227 191.054 258.485 191.201 257.785 191.495C257.085 191.775 256.455 192.188 255.896 192.733C255.336 193.293 254.86 193.979 254.468 194.791C254.09 195.589 253.824 196.513 253.67 197.562H265.89V197.374C265.89 196.674 265.757 195.925 265.491 195.127C265.225 194.315 264.854 193.615 264.378 193.027C263.902 192.439 263.3 191.964 262.572 191.6C261.858 191.236 261.005 191.054 260.011 191.054ZM291.19 187.862C291.904 187.862 292.646 187.911 293.416 188.009C294.199 188.107 294.787 188.24 295.179 188.408L294.654 192.208C293.898 192.041 293.178 191.922 292.492 191.852C291.82 191.768 291.113 191.726 290.371 191.726C289.419 191.726 288.558 191.845 287.789 192.083C287.019 192.306 286.347 192.642 285.773 193.09C285.255 193.482 284.8 193.965 284.408 194.539C284.03 195.099 283.715 195.729 283.463 196.429V211H279.558V188.282H283.253L283.421 191.327L283.442 191.894C284.366 190.648 285.472 189.668 286.76 188.954C288.062 188.226 289.538 187.862 291.19 187.862ZM309.876 211L300.533 188.282H304.522L311.031 205.415L311.388 206.822L311.766 205.415L318.128 188.282H322.096L312.837 211H309.876ZM337.99 211.42C336.395 211.42 334.925 211.147 333.581 210.601C332.251 210.055 331.111 209.292 330.159 208.312C329.207 207.333 328.465 206.171 327.933 204.827C327.401 203.483 327.135 202.021 327.135 200.439V199.557C327.135 197.723 327.429 196.086 328.017 194.644C328.605 193.188 329.389 191.957 330.369 190.949C331.334 189.955 332.433 189.192 333.665 188.66C334.911 188.128 336.185 187.862 337.486 187.862C339.124 187.862 340.552 188.149 341.77 188.723C343.001 189.283 344.023 190.06 344.835 191.054C345.647 192.062 346.249 193.244 346.641 194.602C347.047 195.96 347.25 197.43 347.25 199.011V200.754H331.02V200.901C331.118 202.007 331.334 202.979 331.67 203.819C332.02 204.659 332.496 205.401 333.098 206.045C333.714 206.731 334.456 207.27 335.324 207.662C336.192 208.054 337.15 208.25 338.2 208.25C339.586 208.25 340.818 207.97 341.896 207.41C342.973 206.85 343.869 206.108 344.583 205.184L346.956 207.032C346.2 208.18 345.066 209.201 343.554 210.097C342.056 210.979 340.202 211.42 337.99 211.42ZM337.486 191.054C336.702 191.054 335.961 191.201 335.261 191.495C334.561 191.775 333.931 192.188 333.371 192.733C332.811 193.293 332.335 193.979 331.943 194.791C331.565 195.589 331.299 196.513 331.146 197.562H343.365V197.374C343.365 196.674 343.232 195.925 342.966 195.127C342.7 194.315 342.329 193.615 341.854 193.027C341.378 192.439 340.776 191.964 340.048 191.6C339.334 191.236 338.48 191.054 337.486 191.054ZM368.666 187.862C369.379 187.862 370.121 187.911 370.891 188.009C371.675 188.107 372.263 188.24 372.655 188.408L372.13 192.208C371.374 192.041 370.653 191.922 369.967 191.852C369.295 191.768 368.589 191.726 367.847 191.726C366.895 191.726 366.034 191.845 365.264 192.083C364.494 192.306 363.822 192.642 363.249 193.09C362.731 193.482 362.276 193.965 361.884 194.539C361.506 195.099 361.191 195.729 360.939 196.429V211H357.034V188.282H360.729L360.897 191.327L360.918 191.894C361.842 190.648 362.948 189.668 364.235 188.954C365.537 188.226 367.014 187.862 368.666 187.862Z" fill="#171717"/>
<path d="M262.254 567V536.43H269.33C270.52 536.444 271.64 536.57 272.689 536.808C273.753 537.032 274.733 537.354 275.629 537.773C276.875 538.347 277.973 539.103 278.925 540.041C279.891 540.965 280.661 542.036 281.235 543.253C281.753 544.289 282.145 545.423 282.411 546.655C282.691 547.887 282.838 549.202 282.852 550.602V552.849C282.852 554.192 282.719 555.466 282.453 556.67C282.201 557.874 281.83 558.979 281.34 559.987C280.836 561.037 280.199 561.989 279.429 562.843C278.659 563.697 277.799 564.424 276.847 565.026C275.839 565.656 274.698 566.139 273.424 566.475C272.165 566.811 270.8 566.986 269.33 567H262.254ZM266.202 539.621V563.83H269.33C270.45 563.816 271.465 563.676 272.375 563.41C273.298 563.144 274.117 562.766 274.831 562.276C275.587 561.772 276.238 561.156 276.784 560.428C277.344 559.686 277.785 558.861 278.106 557.951C278.386 557.209 278.596 556.411 278.736 555.557C278.876 554.689 278.953 553.786 278.967 552.849V550.56C278.953 549.608 278.869 548.698 278.715 547.831C278.575 546.949 278.358 546.13 278.064 545.374C277.687 544.394 277.176 543.512 276.532 542.729C275.902 541.931 275.125 541.287 274.201 540.797C273.543 540.433 272.808 540.153 271.997 539.957C271.185 539.747 270.296 539.635 269.33 539.621H266.202ZM308.362 553.479C308.348 554.57 308.25 555.676 308.068 556.796C307.9 557.902 307.634 558.972 307.27 560.008C306.906 561.044 306.437 562.01 305.863 562.906C305.303 563.802 304.632 564.585 303.848 565.257C303.064 565.929 302.161 566.461 301.139 566.853C300.131 567.231 298.998 567.42 297.738 567.42C296.478 567.42 295.337 567.231 294.315 566.853C293.308 566.461 292.412 565.929 291.628 565.257C290.844 564.585 290.165 563.802 289.591 562.906C289.017 561.996 288.549 561.023 288.185 559.987C287.807 558.951 287.527 557.881 287.345 556.775C287.163 555.669 287.065 554.57 287.051 553.479V549.993C287.065 548.901 287.156 547.803 287.324 546.697C287.506 545.577 287.786 544.499 288.164 543.463C288.528 542.428 288.989 541.462 289.549 540.566C290.123 539.656 290.802 538.858 291.586 538.172C292.37 537.5 293.266 536.976 294.273 536.598C295.295 536.206 296.436 536.01 297.696 536.01C298.956 536.01 300.096 536.206 301.118 536.598C302.14 536.976 303.043 537.5 303.827 538.172C304.611 538.844 305.282 539.635 305.842 540.545C306.416 541.441 306.892 542.407 307.27 543.442C307.634 544.478 307.9 545.556 308.068 546.676C308.25 547.796 308.348 548.901 308.362 549.993V553.479ZM304.52 549.951C304.506 549.223 304.457 548.467 304.373 547.684C304.289 546.886 304.149 546.095 303.953 545.311C303.743 544.541 303.47 543.806 303.134 543.106C302.798 542.393 302.378 541.763 301.874 541.217C301.37 540.685 300.775 540.265 300.089 539.957C299.403 539.635 298.606 539.474 297.696 539.474C296.8 539.474 296.009 539.635 295.323 539.957C294.637 540.279 294.042 540.706 293.539 541.238C293.035 541.784 292.615 542.414 292.279 543.127C291.943 543.827 291.677 544.562 291.481 545.332C291.271 546.116 291.117 546.907 291.019 547.705C290.935 548.488 290.886 549.237 290.872 549.951V553.479C290.886 554.192 290.935 554.948 291.019 555.746C291.117 556.544 291.271 557.328 291.481 558.098C291.691 558.882 291.964 559.63 292.3 560.344C292.636 561.058 293.056 561.681 293.56 562.213C294.063 562.759 294.658 563.193 295.344 563.515C296.03 563.837 296.828 563.998 297.738 563.998C298.648 563.998 299.445 563.837 300.131 563.515C300.831 563.193 301.433 562.759 301.937 562.213C302.427 561.681 302.833 561.065 303.155 560.365C303.491 559.651 303.764 558.903 303.974 558.119C304.17 557.349 304.303 556.565 304.373 555.767C304.457 554.969 304.506 554.206 304.52 553.479V549.951ZM318.566 536.43L323.542 551.715L328.917 536.43H333.746V567H329.967V554.801L330.282 542.036L324.634 558.497H322.408L317.222 542.477L317.537 554.801V567H313.758V536.43H318.566Z" fill="#171717"/>
<path d="M262.254 567V536.43H269.33C270.52 536.444 271.64 536.57 272.689 536.808C273.753 537.032 274.733 537.354 275.629 537.773C276.875 538.347 277.973 539.103 278.925 540.041C279.891 540.965 280.661 542.036 281.235 543.253C281.753 544.289 282.145 545.423 282.411 546.655C282.691 547.887 282.838 549.202 282.852 550.602V552.849C282.852 554.192 282.719 555.466 282.453 556.67C282.201 557.874 281.83 558.979 281.34 559.987C280.836 561.037 280.199 561.989 279.429 562.843C278.659 563.697 277.799 564.424 276.847 565.026C275.839 565.656 274.698 566.139 273.424 566.475C272.165 566.811 270.8 566.986 269.33 567H262.254ZM266.202 539.621V563.83H269.33C270.45 563.816 271.465 563.676 272.375 563.41C273.298 563.144 274.117 562.766 274.831 562.276C275.587 561.772 276.238 561.156 276.784 560.428C277.344 559.686 277.785 558.861 278.106 557.951C278.386 557.209 278.596 556.411 278.736 555.557C278.876 554.689 278.953 553.786 278.967 552.849V550.56C278.953 549.608 278.869 548.698 278.715 547.831C278.575 546.949 278.358 546.13 278.064 545.374C277.687 544.394 277.176 543.512 276.532 542.729C275.902 541.931 275.125 541.287 274.201 540.797C273.543 540.433 272.808 540.153 271.997 539.957C271.185 539.747 270.296 539.635 269.33 539.621H266.202ZM308.362 553.479C308.348 554.57 308.25 555.676 308.068 556.796C307.9 557.902 307.634 558.972 307.27 560.008C306.906 561.044 306.437 562.01 305.863 562.906C305.303 563.802 304.632 564.585 303.848 565.257C303.064 565.929 302.161 566.461 301.139 566.853C300.131 567.231 298.998 567.42 297.738 567.42C296.478 567.42 295.337 567.231 294.315 566.853C293.308 566.461 292.412 565.929 291.628 565.257C290.844 564.585 290.165 563.802 289.591 562.906C289.017 561.996 288.549 561.023 288.185 559.987C287.807 558.951 287.527 557.881 287.345 556.775C287.163 555.669 287.065 554.57 287.051 553.479V549.993C287.065 548.901 287.156 547.803 287.324 546.697C287.506 545.577 287.786 544.499 288.164 543.463C288.528 542.428 288.989 541.462 289.549 540.566C290.123 539.656 290.802 538.858 291.586 538.172C292.37 537.5 293.266 536.976 294.273 536.598C295.295 536.206 296.436 536.01 297.696 536.01C298.956 536.01 300.096 536.206 301.118 536.598C302.14 536.976 303.043 537.5 303.827 538.172C304.611 538.844 305.282 539.635 305.842 540.545C306.416 541.441 306.892 542.407 307.27 543.442C307.634 544.478 307.9 545.556 308.068 546.676C308.25 547.796 308.348 548.901 308.362 549.993V553.479ZM304.52 549.951C304.506 549.223 304.457 548.467 304.373 547.684C304.289 546.886 304.149 546.095 303.953 545.311C303.743 544.541 303.47 543.806 303.134 543.106C302.798 542.393 302.378 541.763 301.874 541.217C301.37 540.685 300.775 540.265 300.089 539.957C299.403 539.635 298.606 539.474 297.696 539.474C296.8 539.474 296.009 539.635 295.323 539.957C294.637 540.279 294.042 540.706 293.539 541.238C293.035 541.784 292.615 542.414 292.279 543.127C291.943 543.827 291.677 544.562 291.481 545.332C291.271 546.116 291.117 546.907 291.019 547.705C290.935 548.488 290.886 549.237 290.872 549.951V553.479C290.886 554.192 290.935 554.948 291.019 555.746C291.117 556.544 291.271 557.328 291.481 558.098C291.691 558.882 291.964 559.63 292.3 560.344C292.636 561.058 293.056 561.681 293.56 562.213C294.063 562.759 294.658 563.193 295.344 563.515C296.03 563.837 296.828 563.998 297.738 563.998C298.648 563.998 299.445 563.837 300.131 563.515C300.831 563.193 301.433 562.759 301.937 562.213C302.427 561.681 302.833 561.065 303.155 560.365C303.491 559.651 303.764 558.903 303.974 558.119C304.17 557.349 304.303 556.565 304.373 555.767C304.457 554.969 304.506 554.206 304.52 553.479V549.951ZM318.566 536.43L323.542 551.715L328.917 536.43H333.746V567H329.967V554.801L330.282 542.036L324.634 558.497H322.408L317.222 542.477L317.537 554.801V567H313.758V536.43H318.566Z" fill="#171717"/>
<path d="M603 197.5C604.381 197.5 605.5 196.381 605.5 195C605.5 193.619 604.381 192.5 603 192.5V195V197.5ZM496.232 193.232C495.256 194.209 495.256 195.791 496.232 196.768L512.142 212.678C513.118 213.654 514.701 213.654 515.678 212.678C516.654 211.701 516.654 210.118 515.678 209.142L501.536 195L515.678 180.858C516.654 179.882 516.654 178.299 515.678 177.322C514.701 176.346 513.118 176.346 512.142 177.322L496.232 193.232ZM597.75 192.5H595.25V197.5H597.75V195V192.5ZM587.25 197.5H589.75V192.5H587.25V195V197.5ZM576.75 192.5H574.25V197.5H576.75V195V192.5ZM566.25 197.5H568.75V192.5H566.25V195V197.5ZM555.75 192.5H553.25V197.5H555.75V195V192.5ZM545.25 197.5H547.75V192.5H545.25V195V197.5ZM534.75 192.5H532.25V197.5H534.75V195V192.5ZM524.25 197.5H526.75V192.5H524.25V195V197.5ZM513.75 192.5H511.25V197.5H513.75V195V192.5ZM503.25 197.5H505.75V192.5H503.25V195V197.5ZM603 195V192.5H597.75V195V197.5H603V195ZM587.25 195V192.5H576.75V195V197.5H587.25V195ZM566.25 195V192.5H555.75V195V197.5H566.25V195ZM545.25 195V192.5H534.75V195V197.5H545.25V195ZM524.25 195V192.5H513.75V195V197.5H524.25V195ZM503.25 195V192.5H498V195V197.5H503.25V195Z" fill="#CCCCCC"/>
<path d="M603 785H517" stroke="#CCCCCC" stroke-width="5" stroke-linecap="round" stroke-dasharray="10 10"/>
<path d="M603 195V785" stroke="#CCCCCC" stroke-width="5" stroke-linecap="round" stroke-dasharray="10 10"/>
<path d="M300.5 329C300.5 327.619 299.381 326.5 298 326.5C296.619 326.5 295.5 327.619 295.5 329H298H300.5ZM296.232 405.768C297.209 406.744 298.791 406.744 299.768 405.768L315.678 389.858C316.654 388.882 316.654 387.299 315.678 386.322C314.701 385.346 313.118 385.346 312.142 386.322L298 400.464L283.858 386.322C282.882 385.346 281.299 385.346 280.322 386.322C279.346 387.299 279.346 388.882 280.322 389.858L296.232 405.768ZM298 329H295.5V404H298H300.5V329H298Z" fill="#CCCCCC"/>
<circle cx="370" cy="785" r="125.5" fill="#F3F0EC" stroke="#171717" stroke-width="5"/>
<path d="M298.246 793.084H288.042L285.585 801H281.701L291.569 770.43H294.823L304.523 801H300.66L298.246 793.084ZM289.091 789.704H297.217L293.186 776.435L289.091 789.704ZM319.158 798.271C319.858 798.271 320.536 798.159 321.194 797.935C321.866 797.711 322.461 797.396 322.979 796.99C323.497 796.598 323.91 796.136 324.218 795.604C324.54 795.058 324.708 794.47 324.722 793.84H328.396C328.382 794.848 328.116 795.814 327.598 796.738C327.094 797.648 326.415 798.445 325.562 799.131C324.708 799.831 323.728 800.391 322.622 800.811C321.516 801.217 320.361 801.42 319.158 801.42C317.436 801.42 315.931 801.112 314.644 800.496C313.356 799.88 312.285 799.047 311.431 797.998C310.563 796.962 309.912 795.765 309.479 794.407C309.045 793.035 308.828 791.594 308.828 790.082V789.2C308.828 787.702 309.045 786.268 309.479 784.896C309.912 783.524 310.563 782.313 311.431 781.264C312.285 780.228 313.356 779.402 314.644 778.786C315.931 778.17 317.436 777.862 319.158 777.862C320.501 777.862 321.733 778.079 322.853 778.513C323.987 778.933 324.967 779.507 325.792 780.235C326.604 780.977 327.241 781.852 327.703 782.859C328.165 783.867 328.396 784.945 328.396 786.093H324.722C324.708 785.407 324.554 784.763 324.26 784.161C323.98 783.545 323.595 783.006 323.105 782.544C322.615 782.083 322.027 781.719 321.341 781.453C320.669 781.187 319.942 781.054 319.158 781.054C317.954 781.054 316.939 781.299 316.113 781.789C315.301 782.264 314.644 782.887 314.14 783.657C313.636 784.441 313.272 785.316 313.048 786.282C312.838 787.248 312.733 788.22 312.733 789.2V790.082C312.733 791.076 312.838 792.063 313.048 793.042C313.272 794.008 313.636 794.876 314.14 795.646C314.63 796.43 315.28 797.067 316.092 797.557C316.918 798.033 317.94 798.271 319.158 798.271ZM344.5 772.781V778.282H353.15V781.285H344.5V793.63C344.5 794.512 344.612 795.24 344.836 795.814C345.06 796.388 345.368 796.843 345.76 797.179C346.152 797.529 346.6 797.774 347.104 797.914C347.621 798.054 348.167 798.124 348.741 798.124C349.161 798.124 349.595 798.103 350.043 798.061C350.491 798.005 350.932 797.942 351.366 797.872C351.786 797.802 352.178 797.732 352.542 797.662C352.919 797.578 353.227 797.508 353.465 797.452L354.011 800.202C353.689 800.398 353.297 800.573 352.835 800.727C352.374 800.867 351.87 800.986 351.324 801.084C350.778 801.196 350.197 801.28 349.581 801.336C348.979 801.392 348.377 801.42 347.775 801.42C346.768 801.42 345.823 801.28 344.941 801C344.073 800.706 343.317 800.244 342.673 799.614C342.029 798.998 341.519 798.201 341.141 797.221C340.777 796.227 340.595 795.03 340.595 793.63V781.285H334.632V778.282H340.595V772.781H344.5ZM361.738 778.282H373.349V797.641H380.76V801H361.738V797.641H369.464V781.663H361.738V778.282ZM368.96 772.319C368.96 771.983 369.009 771.668 369.107 771.375C369.219 771.081 369.387 770.829 369.611 770.619C369.793 770.437 370.024 770.297 370.304 770.199C370.598 770.087 370.927 770.031 371.291 770.031C371.655 770.031 371.977 770.087 372.257 770.199C372.537 770.297 372.768 770.437 372.95 770.619C373.174 770.815 373.342 771.06 373.454 771.354C373.566 771.647 373.622 771.969 373.622 772.319C373.622 772.949 373.426 773.474 373.034 773.894C372.642 774.314 372.061 774.524 371.291 774.524C370.507 774.524 369.919 774.314 369.527 773.894C369.149 773.474 368.96 772.949 368.96 772.319ZM385.862 789.431C385.862 787.793 386.1 786.275 386.576 784.875C387.052 783.461 387.738 782.236 388.634 781.201C389.516 780.165 390.593 779.353 391.867 778.765C393.141 778.163 394.576 777.862 396.171 777.862C397.781 777.862 399.223 778.163 400.497 778.765C401.784 779.353 402.876 780.165 403.772 781.201C404.654 782.236 405.333 783.461 405.809 784.875C406.285 786.275 406.522 787.793 406.522 789.431V789.893C406.522 791.531 406.285 793.049 405.809 794.449C405.333 795.849 404.654 797.067 403.772 798.103C402.876 799.138 401.791 799.95 400.518 800.538C399.244 801.126 397.809 801.42 396.213 801.42C394.604 801.42 393.155 801.126 391.867 800.538C390.593 799.95 389.516 799.138 388.634 798.103C387.738 797.067 387.052 795.849 386.576 794.449C386.1 793.049 385.862 791.531 385.862 789.893V789.431ZM389.747 789.893C389.747 791.013 389.88 792.084 390.146 793.105C390.411 794.113 390.817 795.002 391.363 795.772C391.895 796.542 392.567 797.151 393.379 797.599C394.191 798.047 395.136 798.271 396.213 798.271C397.277 798.271 398.208 798.047 399.006 797.599C399.818 797.151 400.497 796.542 401.042 795.772C401.574 795.002 401.973 794.113 402.239 793.105C402.505 792.084 402.638 791.013 402.638 789.893V789.431C402.638 788.325 402.498 787.269 402.218 786.261C401.952 785.239 401.553 784.343 401.021 783.573C400.476 782.803 399.797 782.194 398.985 781.747C398.187 781.285 397.249 781.054 396.171 781.054C395.094 781.054 394.156 781.285 393.358 781.747C392.56 782.194 391.895 782.803 391.363 783.573C390.817 784.343 390.411 785.239 390.146 786.261C389.88 787.269 389.747 788.325 389.747 789.431V789.893ZM412.779 801V778.282H416.265L416.538 781.642C416.874 781.166 417.237 780.732 417.629 780.34C418.035 779.934 418.462 779.584 418.91 779.29C419.582 778.842 420.31 778.499 421.094 778.261C421.892 778.009 422.731 777.876 423.613 777.862C424.803 777.862 425.881 778.03 426.847 778.366C427.826 778.702 428.659 779.227 429.345 779.941C430.031 780.655 430.556 781.565 430.92 782.67C431.298 783.762 431.487 785.064 431.487 786.576V801H427.603V786.66C427.603 785.652 427.491 784.798 427.267 784.098C427.043 783.398 426.714 782.831 426.28 782.397C425.832 781.964 425.286 781.649 424.642 781.453C424.012 781.257 423.284 781.159 422.458 781.159C421.745 781.159 421.08 781.264 420.464 781.474C419.848 781.67 419.281 781.943 418.763 782.292C418.343 782.6 417.951 782.957 417.587 783.363C417.237 783.769 416.93 784.217 416.664 784.707V801H412.779ZM453.701 794.974C453.701 794.512 453.61 794.099 453.428 793.735C453.246 793.357 452.938 793.014 452.504 792.707C452.07 792.399 451.496 792.119 450.782 791.867C450.068 791.601 449.18 791.363 448.116 791.153C446.814 790.887 445.624 790.565 444.546 790.187C443.483 789.809 442.573 789.354 441.817 788.822C441.047 788.304 440.452 787.695 440.032 786.996C439.612 786.282 439.402 785.456 439.402 784.518C439.402 783.594 439.619 782.733 440.053 781.936C440.487 781.124 441.096 780.417 441.88 779.815C442.664 779.213 443.595 778.737 444.672 778.387C445.764 778.037 446.961 777.862 448.263 777.862C449.662 777.862 450.922 778.044 452.042 778.408C453.162 778.772 454.114 779.276 454.897 779.92C455.681 780.564 456.283 781.32 456.703 782.188C457.137 783.041 457.354 783.965 457.354 784.959H453.47C453.47 784.469 453.344 783.993 453.092 783.531C452.84 783.055 452.49 782.635 452.042 782.271C451.594 781.908 451.048 781.614 450.404 781.39C449.774 781.166 449.061 781.054 448.263 781.054C447.437 781.054 446.709 781.145 446.079 781.327C445.463 781.509 444.952 781.754 444.546 782.062C444.126 782.369 443.812 782.726 443.602 783.132C443.392 783.538 443.287 783.958 443.287 784.392C443.287 784.84 443.371 785.239 443.539 785.589C443.707 785.939 444 786.254 444.42 786.534C444.826 786.814 445.372 787.066 446.058 787.29C446.758 787.514 447.64 787.73 448.704 787.94C450.103 788.234 451.356 788.577 452.462 788.969C453.568 789.347 454.499 789.802 455.254 790.334C456.01 790.88 456.584 791.51 456.976 792.224C457.382 792.938 457.585 793.763 457.585 794.701C457.585 795.709 457.354 796.626 456.892 797.452C456.444 798.278 455.814 798.984 455.002 799.572C454.191 800.16 453.218 800.615 452.084 800.937C450.95 801.259 449.711 801.42 448.368 801.42C446.828 801.42 445.456 801.217 444.252 800.811C443.049 800.391 442.034 799.838 441.208 799.152C440.368 798.48 439.724 797.697 439.276 796.801C438.842 795.905 438.625 794.974 438.625 794.008H442.51C442.566 794.806 442.776 795.478 443.14 796.024C443.518 796.57 443.986 797.011 444.546 797.347C445.092 797.683 445.701 797.921 446.373 798.061C447.045 798.201 447.71 798.271 448.368 798.271C449.403 798.271 450.306 798.152 451.076 797.914C451.846 797.662 452.448 797.319 452.882 796.885C453.148 796.619 453.351 796.325 453.491 796.003C453.631 795.681 453.701 795.338 453.701 794.974Z" fill="#171717"/>
</svg>
