<svg width="682" height="992" viewBox="0 0 682 992" fill="none" xmlns="http://www.w3.org/2000/svg">
<rect x="115.5" y="81.5" width="365" height="227" rx="21.5" fill="#F3F0EC" stroke="#171717" stroke-width="5"/>
<rect x="81.5" y="425.5" width="433" height="250" rx="21.5" fill="#F3F0EC" stroke="#171717" stroke-width="5"/>
<path d="M186.246 203.084H176.042L173.585 211H169.701L179.569 180.43H182.823L192.523 211H188.66L186.246 203.084ZM177.091 199.704H185.217L181.186 186.435L177.091 199.704ZM197.458 219.734V188.282H201.006L201.195 190.76C201.503 190.368 201.839 190.018 202.203 189.71C202.567 189.388 202.958 189.115 203.378 188.891C203.966 188.555 204.617 188.303 205.331 188.135C206.059 187.953 206.836 187.862 207.662 187.862C209.117 187.862 210.405 188.149 211.525 188.723C212.645 189.297 213.583 190.095 214.338 191.117C215.094 192.139 215.668 193.363 216.06 194.791C216.452 196.205 216.648 197.758 216.648 199.452V199.893C216.648 201.517 216.452 203.035 216.06 204.449C215.668 205.849 215.094 207.067 214.338 208.103C213.583 209.138 212.645 209.95 211.525 210.538C210.419 211.126 209.152 211.42 207.725 211.42C206.857 211.42 206.045 211.329 205.289 211.147C204.547 210.965 203.875 210.706 203.273 210.37C202.91 210.16 202.567 209.929 202.245 209.677C201.923 209.411 201.622 209.124 201.342 208.816V219.734H197.458ZM212.764 199.452C212.764 198.346 212.638 197.297 212.386 196.303C212.148 195.295 211.777 194.406 211.273 193.636C210.755 192.88 210.104 192.278 209.32 191.831C208.536 191.383 207.599 191.159 206.507 191.159C205.905 191.159 205.345 191.229 204.827 191.369C204.323 191.509 203.868 191.712 203.462 191.978C203.014 192.243 202.616 192.572 202.266 192.964C201.916 193.356 201.608 193.79 201.342 194.266V205.205C201.58 205.625 201.853 206.017 202.161 206.381C202.469 206.745 202.819 207.053 203.21 207.305C203.658 207.599 204.155 207.83 204.701 207.998C205.261 208.166 205.877 208.25 206.549 208.25C207.627 208.25 208.557 208.026 209.341 207.578C210.125 207.116 210.769 206.5 211.273 205.73C211.777 204.96 212.148 204.071 212.386 203.063C212.638 202.056 212.764 200.999 212.764 199.893V199.452ZM223.283 219.734V188.282H226.831L227.02 190.76C227.328 190.368 227.664 190.018 228.028 189.71C228.392 189.388 228.784 189.115 229.204 188.891C229.792 188.555 230.442 188.303 231.156 188.135C231.884 187.953 232.661 187.862 233.487 187.862C234.943 187.862 236.23 188.149 237.35 188.723C238.47 189.297 239.408 190.095 240.164 191.117C240.919 192.139 241.493 193.363 241.885 194.791C242.277 196.205 242.473 197.758 242.473 199.452V199.893C242.473 201.517 242.277 203.035 241.885 204.449C241.493 205.849 240.919 207.067 240.164 208.103C239.408 209.138 238.47 209.95 237.35 210.538C236.244 211.126 234.978 211.42 233.55 211.42C232.682 211.42 231.87 211.329 231.114 211.147C230.372 210.965 229.701 210.706 229.099 210.37C228.735 210.16 228.392 209.929 228.07 209.677C227.748 209.411 227.447 209.124 227.167 208.816V219.734H223.283ZM238.589 199.452C238.589 198.346 238.463 197.297 238.211 196.303C237.973 195.295 237.602 194.406 237.098 193.636C236.58 192.88 235.929 192.278 235.146 191.831C234.362 191.383 233.424 191.159 232.332 191.159C231.73 191.159 231.17 191.229 230.652 191.369C230.148 191.509 229.694 191.712 229.288 191.978C228.84 192.243 228.441 192.572 228.091 192.964C227.741 193.356 227.433 193.79 227.167 194.266V205.205C227.405 205.625 227.678 206.017 227.986 206.381C228.294 206.745 228.644 207.053 229.036 207.305C229.484 207.599 229.98 207.83 230.526 207.998C231.086 208.166 231.702 208.25 232.374 208.25C233.452 208.25 234.383 208.026 235.167 207.578C235.95 207.116 236.594 206.5 237.098 205.73C237.602 204.96 237.973 204.071 238.211 203.063C238.463 202.056 238.589 200.999 238.589 199.893V199.452ZM285.074 198.528H278.964V211H275.101V180.43H284.066C285.494 180.458 286.838 180.661 288.098 181.039C289.357 181.417 290.463 181.983 291.415 182.739C292.353 183.495 293.088 184.447 293.62 185.595C294.166 186.729 294.438 188.065 294.438 189.605C294.438 190.599 294.292 191.509 293.998 192.334C293.718 193.16 293.326 193.909 292.822 194.581C292.318 195.253 291.716 195.848 291.016 196.366C290.316 196.884 289.546 197.325 288.707 197.688L295.194 210.748L295.173 211H291.079L285.074 198.528ZM278.964 195.337H284.171C285.039 195.323 285.858 195.19 286.628 194.938C287.398 194.672 288.077 194.294 288.665 193.804C289.238 193.314 289.693 192.719 290.029 192.02C290.365 191.306 290.533 190.487 290.533 189.563C290.533 188.583 290.372 187.729 290.05 187.001C289.728 186.26 289.28 185.637 288.707 185.133C288.133 184.643 287.447 184.272 286.649 184.02C285.865 183.768 285.004 183.635 284.066 183.621H278.964V195.337ZM310.815 211.42C309.22 211.42 307.75 211.147 306.406 210.601C305.076 210.055 303.936 209.292 302.984 208.312C302.032 207.333 301.29 206.171 300.758 204.827C300.226 203.483 299.96 202.021 299.96 200.439V199.557C299.96 197.723 300.254 196.086 300.842 194.644C301.43 193.188 302.214 191.957 303.194 190.949C304.16 189.955 305.258 189.192 306.49 188.66C307.736 188.128 309.01 187.862 310.312 187.862C311.949 187.862 313.377 188.149 314.595 188.723C315.826 189.283 316.848 190.06 317.66 191.054C318.472 192.062 319.074 193.244 319.466 194.602C319.872 195.96 320.075 197.43 320.075 199.011V200.754H303.845V200.901C303.943 202.007 304.16 202.979 304.496 203.819C304.846 204.659 305.321 205.401 305.923 206.045C306.539 206.731 307.281 207.27 308.149 207.662C309.017 208.054 309.976 208.25 311.025 208.25C312.411 208.25 313.643 207.97 314.721 207.41C315.799 206.85 316.694 206.108 317.408 205.184L319.781 207.032C319.025 208.18 317.891 209.201 316.379 210.097C314.882 210.979 313.027 211.42 310.815 211.42ZM310.312 191.054C309.528 191.054 308.786 191.201 308.086 191.495C307.386 191.775 306.756 192.188 306.196 192.733C305.636 193.293 305.16 193.979 304.769 194.791C304.391 195.589 304.125 196.513 303.971 197.562H316.19V197.374C316.19 196.674 316.057 195.925 315.792 195.127C315.526 194.315 315.155 193.615 314.679 193.027C314.203 192.439 313.601 191.964 312.873 191.6C312.159 191.236 311.305 191.054 310.312 191.054ZM326.604 211V188.282H330.09L330.363 191.642C330.699 191.166 331.063 190.732 331.455 190.34C331.861 189.934 332.287 189.584 332.735 189.29C333.407 188.842 334.135 188.499 334.919 188.261C335.717 188.009 336.557 187.876 337.438 187.862C338.628 187.862 339.706 188.03 340.672 188.366C341.652 188.702 342.485 189.227 343.17 189.941C343.856 190.655 344.381 191.565 344.745 192.67C345.123 193.762 345.312 195.064 345.312 196.576V211H341.428V196.66C341.428 195.652 341.316 194.798 341.092 194.098C340.868 193.398 340.539 192.831 340.105 192.397C339.657 191.964 339.111 191.649 338.467 191.453C337.837 191.257 337.11 191.159 336.284 191.159C335.57 191.159 334.905 191.264 334.289 191.474C333.673 191.67 333.106 191.943 332.588 192.292C332.168 192.6 331.777 192.957 331.413 193.363C331.063 193.769 330.755 194.217 330.489 194.707V211H326.604ZM351.695 199.452C351.695 197.758 351.905 196.205 352.325 194.791C352.759 193.363 353.375 192.139 354.172 191.117C354.956 190.095 355.908 189.297 357.028 188.723C358.148 188.149 359.4 187.862 360.786 187.862C362.144 187.862 363.327 188.093 364.334 188.555C365.356 189.003 366.238 189.661 366.98 190.529V178.75H370.864V211H367.295L367.127 208.606C366.371 209.53 365.468 210.23 364.418 210.706C363.369 211.182 362.144 211.42 360.744 211.42C359.372 211.42 358.127 211.126 357.007 210.538C355.901 209.95 354.956 209.138 354.172 208.103C353.389 207.067 352.78 205.849 352.346 204.449C351.912 203.035 351.695 201.517 351.695 199.893V199.452ZM355.579 199.893C355.579 200.999 355.698 202.049 355.936 203.042C356.174 204.036 356.545 204.911 357.049 205.667C357.539 206.423 358.169 207.025 358.938 207.473C359.708 207.907 360.632 208.124 361.71 208.124C363.012 208.124 364.09 207.83 364.943 207.242C365.797 206.654 366.476 205.863 366.98 204.869V194.329C366.476 193.405 365.797 192.649 364.943 192.062C364.09 191.46 363.026 191.159 361.752 191.159C360.66 191.159 359.722 191.383 358.938 191.831C358.169 192.278 357.539 192.88 357.049 193.636C356.545 194.406 356.174 195.295 355.936 196.303C355.698 197.297 355.579 198.346 355.579 199.452V199.893ZM388.291 211.42C386.695 211.42 385.226 211.147 383.882 210.601C382.552 210.055 381.411 209.292 380.459 208.312C379.508 207.333 378.766 206.171 378.234 204.827C377.702 203.483 377.436 202.021 377.436 200.439V199.557C377.436 197.723 377.73 196.086 378.318 194.644C378.906 193.188 379.69 191.957 380.669 190.949C381.635 189.955 382.734 189.192 383.966 188.66C385.212 188.128 386.485 187.862 387.787 187.862C389.425 187.862 390.853 188.149 392.07 188.723C393.302 189.283 394.324 190.06 395.136 191.054C395.948 192.062 396.549 193.244 396.941 194.602C397.347 195.96 397.55 197.43 397.55 199.011V200.754H381.32V200.901C381.418 202.007 381.635 202.979 381.971 203.819C382.321 204.659 382.797 205.401 383.399 206.045C384.015 206.731 384.757 207.27 385.625 207.662C386.492 208.054 387.451 208.25 388.501 208.25C389.887 208.25 391.118 207.97 392.196 207.41C393.274 206.85 394.17 206.108 394.884 205.184L397.256 207.032C396.5 208.18 395.367 209.201 393.855 210.097C392.357 210.979 390.503 211.42 388.291 211.42ZM387.787 191.054C387.003 191.054 386.261 191.201 385.562 191.495C384.862 191.775 384.232 192.188 383.672 192.733C383.112 193.293 382.636 193.979 382.244 194.791C381.866 195.589 381.6 196.513 381.446 197.562H393.666V197.374C393.666 196.674 393.533 195.925 393.267 195.127C393.001 194.315 392.63 193.615 392.154 193.027C391.678 192.439 391.076 191.964 390.349 191.6C389.635 191.236 388.781 191.054 387.787 191.054ZM418.966 187.862C419.68 187.862 420.422 187.911 421.192 188.009C421.976 188.107 422.564 188.24 422.956 188.408L422.431 192.208C421.675 192.041 420.954 191.922 420.268 191.852C419.596 191.768 418.889 191.726 418.147 191.726C417.196 191.726 416.335 191.845 415.565 192.083C414.795 192.306 414.123 192.642 413.549 193.09C413.031 193.482 412.576 193.965 412.185 194.539C411.807 195.099 411.492 195.729 411.24 196.429V211H407.334V188.282H411.03L411.198 191.327L411.219 191.894C412.143 190.648 413.248 189.668 414.536 188.954C415.838 188.226 417.315 187.862 418.966 187.862Z" fill="#171717"/>
<path d="M262.254 567V536.43H269.33C270.52 536.444 271.64 536.57 272.689 536.808C273.753 537.032 274.733 537.354 275.629 537.773C276.875 538.347 277.973 539.103 278.925 540.041C279.891 540.965 280.661 542.036 281.235 543.253C281.753 544.289 282.145 545.423 282.411 546.655C282.691 547.887 282.838 549.202 282.852 550.602V552.849C282.852 554.192 282.719 555.466 282.453 556.67C282.201 557.874 281.83 558.979 281.34 559.987C280.836 561.037 280.199 561.989 279.429 562.843C278.659 563.697 277.799 564.424 276.847 565.026C275.839 565.656 274.698 566.139 273.424 566.475C272.165 566.811 270.8 566.986 269.33 567H262.254ZM266.202 539.621V563.83H269.33C270.45 563.816 271.465 563.676 272.375 563.41C273.298 563.144 274.117 562.766 274.831 562.276C275.587 561.772 276.238 561.156 276.784 560.428C277.344 559.686 277.785 558.861 278.106 557.951C278.386 557.209 278.596 556.411 278.736 555.557C278.876 554.689 278.953 553.786 278.967 552.849V550.56C278.953 549.608 278.869 548.698 278.715 547.831C278.575 546.949 278.358 546.13 278.064 545.374C277.687 544.394 277.176 543.512 276.532 542.729C275.902 541.931 275.125 541.287 274.201 540.797C273.543 540.433 272.808 540.153 271.997 539.957C271.185 539.747 270.296 539.635 269.33 539.621H266.202ZM308.362 553.479C308.348 554.57 308.25 555.676 308.068 556.796C307.9 557.902 307.634 558.972 307.27 560.008C306.906 561.044 306.437 562.01 305.863 562.906C305.303 563.802 304.632 564.585 303.848 565.257C303.064 565.929 302.161 566.461 301.139 566.853C300.131 567.231 298.998 567.42 297.738 567.42C296.478 567.42 295.337 567.231 294.315 566.853C293.308 566.461 292.412 565.929 291.628 565.257C290.844 564.585 290.165 563.802 289.591 562.906C289.017 561.996 288.549 561.023 288.185 559.987C287.807 558.951 287.527 557.881 287.345 556.775C287.163 555.669 287.065 554.57 287.051 553.479V549.993C287.065 548.901 287.156 547.803 287.324 546.697C287.506 545.577 287.786 544.499 288.164 543.463C288.528 542.428 288.989 541.462 289.549 540.566C290.123 539.656 290.802 538.858 291.586 538.172C292.37 537.5 293.266 536.976 294.273 536.598C295.295 536.206 296.436 536.01 297.696 536.01C298.956 536.01 300.096 536.206 301.118 536.598C302.14 536.976 303.043 537.5 303.827 538.172C304.611 538.844 305.282 539.635 305.842 540.545C306.416 541.441 306.892 542.407 307.27 543.442C307.634 544.478 307.9 545.556 308.068 546.676C308.25 547.796 308.348 548.901 308.362 549.993V553.479ZM304.52 549.951C304.506 549.223 304.457 548.467 304.373 547.684C304.289 546.886 304.149 546.095 303.953 545.311C303.743 544.541 303.47 543.806 303.134 543.106C302.798 542.393 302.378 541.763 301.874 541.217C301.37 540.685 300.775 540.265 300.089 539.957C299.403 539.635 298.606 539.474 297.696 539.474C296.8 539.474 296.009 539.635 295.323 539.957C294.637 540.279 294.042 540.706 293.539 541.238C293.035 541.784 292.615 542.414 292.279 543.127C291.943 543.827 291.677 544.562 291.481 545.332C291.271 546.116 291.117 546.907 291.019 547.705C290.935 548.488 290.886 549.237 290.872 549.951V553.479C290.886 554.192 290.935 554.948 291.019 555.746C291.117 556.544 291.271 557.328 291.481 558.098C291.691 558.882 291.964 559.63 292.3 560.344C292.636 561.058 293.056 561.681 293.56 562.213C294.063 562.759 294.658 563.193 295.344 563.515C296.03 563.837 296.828 563.998 297.738 563.998C298.648 563.998 299.445 563.837 300.131 563.515C300.831 563.193 301.433 562.759 301.937 562.213C302.427 561.681 302.833 561.065 303.155 560.365C303.491 559.651 303.764 558.903 303.974 558.119C304.17 557.349 304.303 556.565 304.373 555.767C304.457 554.969 304.506 554.206 304.52 553.479V549.951ZM318.566 536.43L323.542 551.715L328.917 536.43H333.746V567H329.967V554.801L330.282 542.036L324.634 558.497H322.408L317.222 542.477L317.537 554.801V567H313.758V536.43H318.566Z" fill="#171717"/>
<path d="M262.254 567V536.43H269.33C270.52 536.444 271.64 536.57 272.689 536.808C273.753 537.032 274.733 537.354 275.629 537.773C276.875 538.347 277.973 539.103 278.925 540.041C279.891 540.965 280.661 542.036 281.235 543.253C281.753 544.289 282.145 545.423 282.411 546.655C282.691 547.887 282.838 549.202 282.852 550.602V552.849C282.852 554.192 282.719 555.466 282.453 556.67C282.201 557.874 281.83 558.979 281.34 559.987C280.836 561.037 280.199 561.989 279.429 562.843C278.659 563.697 277.799 564.424 276.847 565.026C275.839 565.656 274.698 566.139 273.424 566.475C272.165 566.811 270.8 566.986 269.33 567H262.254ZM266.202 539.621V563.83H269.33C270.45 563.816 271.465 563.676 272.375 563.41C273.298 563.144 274.117 562.766 274.831 562.276C275.587 561.772 276.238 561.156 276.784 560.428C277.344 559.686 277.785 558.861 278.106 557.951C278.386 557.209 278.596 556.411 278.736 555.557C278.876 554.689 278.953 553.786 278.967 552.849V550.56C278.953 549.608 278.869 548.698 278.715 547.831C278.575 546.949 278.358 546.13 278.064 545.374C277.687 544.394 277.176 543.512 276.532 542.729C275.902 541.931 275.125 541.287 274.201 540.797C273.543 540.433 272.808 540.153 271.997 539.957C271.185 539.747 270.296 539.635 269.33 539.621H266.202ZM308.362 553.479C308.348 554.57 308.25 555.676 308.068 556.796C307.9 557.902 307.634 558.972 307.27 560.008C306.906 561.044 306.437 562.01 305.863 562.906C305.303 563.802 304.632 564.585 303.848 565.257C303.064 565.929 302.161 566.461 301.139 566.853C300.131 567.231 298.998 567.42 297.738 567.42C296.478 567.42 295.337 567.231 294.315 566.853C293.308 566.461 292.412 565.929 291.628 565.257C290.844 564.585 290.165 563.802 289.591 562.906C289.017 561.996 288.549 561.023 288.185 559.987C287.807 558.951 287.527 557.881 287.345 556.775C287.163 555.669 287.065 554.57 287.051 553.479V549.993C287.065 548.901 287.156 547.803 287.324 546.697C287.506 545.577 287.786 544.499 288.164 543.463C288.528 542.428 288.989 541.462 289.549 540.566C290.123 539.656 290.802 538.858 291.586 538.172C292.37 537.5 293.266 536.976 294.273 536.598C295.295 536.206 296.436 536.01 297.696 536.01C298.956 536.01 300.096 536.206 301.118 536.598C302.14 536.976 303.043 537.5 303.827 538.172C304.611 538.844 305.282 539.635 305.842 540.545C306.416 541.441 306.892 542.407 307.27 543.442C307.634 544.478 307.9 545.556 308.068 546.676C308.25 547.796 308.348 548.901 308.362 549.993V553.479ZM304.52 549.951C304.506 549.223 304.457 548.467 304.373 547.684C304.289 546.886 304.149 546.095 303.953 545.311C303.743 544.541 303.47 543.806 303.134 543.106C302.798 542.393 302.378 541.763 301.874 541.217C301.37 540.685 300.775 540.265 300.089 539.957C299.403 539.635 298.606 539.474 297.696 539.474C296.8 539.474 296.009 539.635 295.323 539.957C294.637 540.279 294.042 540.706 293.539 541.238C293.035 541.784 292.615 542.414 292.279 543.127C291.943 543.827 291.677 544.562 291.481 545.332C291.271 546.116 291.117 546.907 291.019 547.705C290.935 548.488 290.886 549.237 290.872 549.951V553.479C290.886 554.192 290.935 554.948 291.019 555.746C291.117 556.544 291.271 557.328 291.481 558.098C291.691 558.882 291.964 559.63 292.3 560.344C292.636 561.058 293.056 561.681 293.56 562.213C294.063 562.759 294.658 563.193 295.344 563.515C296.03 563.837 296.828 563.998 297.738 563.998C298.648 563.998 299.445 563.837 300.131 563.515C300.831 563.193 301.433 562.759 301.937 562.213C302.427 561.681 302.833 561.065 303.155 560.365C303.491 559.651 303.764 558.903 303.974 558.119C304.17 557.349 304.303 556.565 304.373 555.767C304.457 554.969 304.506 554.206 304.52 553.479V549.951ZM318.566 536.43L323.542 551.715L328.917 536.43H333.746V567H329.967V554.801L330.282 542.036L324.634 558.497H322.408L317.222 542.477L317.537 554.801V567H313.758V536.43H318.566Z" fill="#171717"/>
<path d="M603 197.5C604.381 197.5 605.5 196.381 605.5 195C605.5 193.619 604.381 192.5 603 192.5V195V197.5ZM496.232 193.232C495.256 194.209 495.256 195.791 496.232 196.768L512.142 212.678C513.118 213.654 514.701 213.654 515.678 212.678C516.654 211.701 516.654 210.118 515.678 209.142L501.536 195L515.678 180.858C516.654 179.882 516.654 178.299 515.678 177.322C514.701 176.346 513.118 176.346 512.142 177.322L496.232 193.232ZM597.75 192.5H595.25V197.5H597.75V195V192.5ZM587.25 197.5H589.75V192.5H587.25V195V197.5ZM576.75 192.5H574.25V197.5H576.75V195V192.5ZM566.25 197.5H568.75V192.5H566.25V195V197.5ZM555.75 192.5H553.25V197.5H555.75V195V192.5ZM545.25 197.5H547.75V192.5H545.25V195V197.5ZM534.75 192.5H532.25V197.5H534.75V195V192.5ZM524.25 197.5H526.75V192.5H524.25V195V197.5ZM513.75 192.5H511.25V197.5H513.75V195V192.5ZM503.25 197.5H505.75V192.5H503.25V195V197.5ZM603 195V192.5H597.75V195V197.5H603V195ZM587.25 195V192.5H576.75V195V197.5H587.25V195ZM566.25 195V192.5H555.75V195V197.5H566.25V195ZM545.25 195V192.5H534.75V195V197.5H545.25V195ZM524.25 195V192.5H513.75V195V197.5H524.25V195ZM503.25 195V192.5H498V195V197.5H503.25V195Z" fill="#CCCCCC"/>
<path d="M603 785H517" stroke="#CCCCCC" stroke-width="5" stroke-linecap="round" stroke-dasharray="10 10"/>
<path d="M603 195V785" stroke="#CCCCCC" stroke-width="5" stroke-linecap="round" stroke-dasharray="10 10"/>
<path d="M300.5 329C300.5 327.619 299.381 326.5 298 326.5C296.619 326.5 295.5 327.619 295.5 329H298H300.5ZM296.232 405.768C297.209 406.744 298.791 406.744 299.768 405.768L315.678 389.858C316.654 388.882 316.654 387.299 315.678 386.322C314.701 385.346 313.118 385.346 312.142 386.322L298 400.464L283.858 386.322C282.882 385.346 281.299 385.346 280.322 386.322C279.346 387.299 279.346 388.882 280.322 389.858L296.232 405.768ZM298 329H295.5V404H298H300.5V329H298Z" fill="#CCCCCC"/>
<circle cx="370" cy="785" r="125.5" fill="#F3F0EC" stroke="#171717" stroke-width="5"/>
<path d="M298.246 793.084H288.042L285.585 801H281.701L291.569 770.43H294.823L304.523 801H300.66L298.246 793.084ZM289.091 789.704H297.217L293.186 776.435L289.091 789.704ZM319.158 798.271C319.858 798.271 320.536 798.159 321.194 797.935C321.866 797.711 322.461 797.396 322.979 796.99C323.497 796.598 323.91 796.136 324.218 795.604C324.54 795.058 324.708 794.47 324.722 793.84H328.396C328.382 794.848 328.116 795.814 327.598 796.738C327.094 797.648 326.415 798.445 325.562 799.131C324.708 799.831 323.728 800.391 322.622 800.811C321.516 801.217 320.361 801.42 319.158 801.42C317.436 801.42 315.931 801.112 314.644 800.496C313.356 799.88 312.285 799.047 311.431 797.998C310.563 796.962 309.912 795.765 309.479 794.407C309.045 793.035 308.828 791.594 308.828 790.082V789.2C308.828 787.702 309.045 786.268 309.479 784.896C309.912 783.524 310.563 782.313 311.431 781.264C312.285 780.228 313.356 779.402 314.644 778.786C315.931 778.17 317.436 777.862 319.158 777.862C320.501 777.862 321.733 778.079 322.853 778.513C323.987 778.933 324.967 779.507 325.792 780.235C326.604 780.977 327.241 781.852 327.703 782.859C328.165 783.867 328.396 784.945 328.396 786.093H324.722C324.708 785.407 324.554 784.763 324.26 784.161C323.98 783.545 323.595 783.006 323.105 782.544C322.615 782.083 322.027 781.719 321.341 781.453C320.669 781.187 319.942 781.054 319.158 781.054C317.954 781.054 316.939 781.299 316.113 781.789C315.301 782.264 314.644 782.887 314.14 783.657C313.636 784.441 313.272 785.316 313.048 786.282C312.838 787.248 312.733 788.22 312.733 789.2V790.082C312.733 791.076 312.838 792.063 313.048 793.042C313.272 794.008 313.636 794.876 314.14 795.646C314.63 796.43 315.28 797.067 316.092 797.557C316.918 798.033 317.94 798.271 319.158 798.271ZM344.5 772.781V778.282H353.15V781.285H344.5V793.63C344.5 794.512 344.612 795.24 344.836 795.814C345.06 796.388 345.368 796.843 345.76 797.179C346.152 797.529 346.6 797.774 347.104 797.914C347.621 798.054 348.167 798.124 348.741 798.124C349.161 798.124 349.595 798.103 350.043 798.061C350.491 798.005 350.932 797.942 351.366 797.872C351.786 797.802 352.178 797.732 352.542 797.662C352.919 797.578 353.227 797.508 353.465 797.452L354.011 800.202C353.689 800.398 353.297 800.573 352.835 800.727C352.374 800.867 351.87 800.986 351.324 801.084C350.778 801.196 350.197 801.28 349.581 801.336C348.979 801.392 348.377 801.42 347.775 801.42C346.768 801.42 345.823 801.28 344.941 801C344.073 800.706 343.317 800.244 342.673 799.614C342.029 798.998 341.519 798.201 341.141 797.221C340.777 796.227 340.595 795.03 340.595 793.63V781.285H334.632V778.282H340.595V772.781H344.5ZM361.738 778.282H373.349V797.641H380.76V801H361.738V797.641H369.464V781.663H361.738V778.282ZM368.96 772.319C368.96 771.983 369.009 771.668 369.107 771.375C369.219 771.081 369.387 770.829 369.611 770.619C369.793 770.437 370.024 770.297 370.304 770.199C370.598 770.087 370.927 770.031 371.291 770.031C371.655 770.031 371.977 770.087 372.257 770.199C372.537 770.297 372.768 770.437 372.95 770.619C373.174 770.815 373.342 771.06 373.454 771.354C373.566 771.647 373.622 771.969 373.622 772.319C373.622 772.949 373.426 773.474 373.034 773.894C372.642 774.314 372.061 774.524 371.291 774.524C370.507 774.524 369.919 774.314 369.527 773.894C369.149 773.474 368.96 772.949 368.96 772.319ZM385.862 789.431C385.862 787.793 386.1 786.275 386.576 784.875C387.052 783.461 387.738 782.236 388.634 781.201C389.516 780.165 390.593 779.353 391.867 778.765C393.141 778.163 394.576 777.862 396.171 777.862C397.781 777.862 399.223 778.163 400.497 778.765C401.784 779.353 402.876 780.165 403.772 781.201C404.654 782.236 405.333 783.461 405.809 784.875C406.285 786.275 406.522 787.793 406.522 789.431V789.893C406.522 791.531 406.285 793.049 405.809 794.449C405.333 795.849 404.654 797.067 403.772 798.103C402.876 799.138 401.791 799.95 400.518 800.538C399.244 801.126 397.809 801.42 396.213 801.42C394.604 801.42 393.155 801.126 391.867 800.538C390.593 799.95 389.516 799.138 388.634 798.103C387.738 797.067 387.052 795.849 386.576 794.449C386.1 793.049 385.862 791.531 385.862 789.893V789.431ZM389.747 789.893C389.747 791.013 389.88 792.084 390.146 793.105C390.411 794.113 390.817 795.002 391.363 795.772C391.895 796.542 392.567 797.151 393.379 797.599C394.191 798.047 395.136 798.271 396.213 798.271C397.277 798.271 398.208 798.047 399.006 797.599C399.818 797.151 400.497 796.542 401.042 795.772C401.574 795.002 401.973 794.113 402.239 793.105C402.505 792.084 402.638 791.013 402.638 789.893V789.431C402.638 788.325 402.498 787.269 402.218 786.261C401.952 785.239 401.553 784.343 401.021 783.573C400.476 782.803 399.797 782.194 398.985 781.747C398.187 781.285 397.249 781.054 396.171 781.054C395.094 781.054 394.156 781.285 393.358 781.747C392.56 782.194 391.895 782.803 391.363 783.573C390.817 784.343 390.411 785.239 390.146 786.261C389.88 787.269 389.747 788.325 389.747 789.431V789.893ZM412.779 801V778.282H416.265L416.538 781.642C416.874 781.166 417.237 780.732 417.629 780.34C418.035 779.934 418.462 779.584 418.91 779.29C419.582 778.842 420.31 778.499 421.094 778.261C421.892 778.009 422.731 777.876 423.613 777.862C424.803 777.862 425.881 778.03 426.847 778.366C427.826 778.702 428.659 779.227 429.345 779.941C430.031 780.655 430.556 781.565 430.92 782.67C431.298 783.762 431.487 785.064 431.487 786.576V801H427.603V786.66C427.603 785.652 427.491 784.798 427.267 784.098C427.043 783.398 426.714 782.831 426.28 782.397C425.832 781.964 425.286 781.649 424.642 781.453C424.012 781.257 423.284 781.159 422.458 781.159C421.745 781.159 421.08 781.264 420.464 781.474C419.848 781.67 419.281 781.943 418.763 782.292C418.343 782.6 417.951 782.957 417.587 783.363C417.237 783.769 416.93 784.217 416.664 784.707V801H412.779ZM453.701 794.974C453.701 794.512 453.61 794.099 453.428 793.735C453.246 793.357 452.938 793.014 452.504 792.707C452.07 792.399 451.496 792.119 450.782 791.867C450.068 791.601 449.18 791.363 448.116 791.153C446.814 790.887 445.624 790.565 444.546 790.187C443.483 789.809 442.573 789.354 441.817 788.822C441.047 788.304 440.452 787.695 440.032 786.996C439.612 786.282 439.402 785.456 439.402 784.518C439.402 783.594 439.619 782.733 440.053 781.936C440.487 781.124 441.096 780.417 441.88 779.815C442.664 779.213 443.595 778.737 444.672 778.387C445.764 778.037 446.961 777.862 448.263 777.862C449.662 777.862 450.922 778.044 452.042 778.408C453.162 778.772 454.114 779.276 454.897 779.92C455.681 780.564 456.283 781.32 456.703 782.188C457.137 783.041 457.354 783.965 457.354 784.959H453.47C453.47 784.469 453.344 783.993 453.092 783.531C452.84 783.055 452.49 782.635 452.042 782.271C451.594 781.908 451.048 781.614 450.404 781.39C449.774 781.166 449.061 781.054 448.263 781.054C447.437 781.054 446.709 781.145 446.079 781.327C445.463 781.509 444.952 781.754 444.546 782.062C444.126 782.369 443.812 782.726 443.602 783.132C443.392 783.538 443.287 783.958 443.287 784.392C443.287 784.84 443.371 785.239 443.539 785.589C443.707 785.939 444 786.254 444.42 786.534C444.826 786.814 445.372 787.066 446.058 787.29C446.758 787.514 447.64 787.73 448.704 787.94C450.103 788.234 451.356 788.577 452.462 788.969C453.568 789.347 454.499 789.802 455.254 790.334C456.01 790.88 456.584 791.51 456.976 792.224C457.382 792.938 457.585 793.763 457.585 794.701C457.585 795.709 457.354 796.626 456.892 797.452C456.444 798.278 455.814 798.984 455.002 799.572C454.191 800.16 453.218 800.615 452.084 800.937C450.95 801.259 449.711 801.42 448.368 801.42C446.828 801.42 445.456 801.217 444.252 800.811C443.049 800.391 442.034 799.838 441.208 799.152C440.368 798.48 439.724 797.697 439.276 796.801C438.842 795.905 438.625 794.974 438.625 794.008H442.51C442.566 794.806 442.776 795.478 443.14 796.024C443.518 796.57 443.986 797.011 444.546 797.347C445.092 797.683 445.701 797.921 446.373 798.061C447.045 798.201 447.71 798.271 448.368 798.271C449.403 798.271 450.306 798.152 451.076 797.914C451.846 797.662 452.448 797.319 452.882 796.885C453.148 796.619 453.351 796.325 453.491 796.003C453.631 795.681 453.701 795.338 453.701 794.974Z" fill="#171717"/>
</svg>
