<svg width="754" height="992" viewBox="0 0 754 992" fill="none" xmlns="http://www.w3.org/2000/svg">
<rect x="115.5" y="81.5" width="365" height="227" rx="21.5" fill="#F3F0EC" stroke="#171717" stroke-width="5"/>
<path d="M240.652 203.273C240.652 202.336 240.435 201.545 240.001 200.901C239.582 200.257 239.036 199.711 238.364 199.263C237.692 198.829 236.95 198.465 236.138 198.171C235.34 197.877 234.57 197.611 233.829 197.374C232.751 197.024 231.652 196.604 230.532 196.114C229.426 195.61 228.419 195.008 227.509 194.308C226.585 193.594 225.829 192.754 225.241 191.789C224.667 190.809 224.38 189.661 224.38 188.345C224.38 187.029 224.667 185.854 225.241 184.818C225.829 183.782 226.592 182.907 227.53 182.193C228.468 181.479 229.531 180.941 230.721 180.577C231.911 180.199 233.108 180.01 234.312 180.01C235.641 180.01 236.922 180.234 238.154 180.682C239.386 181.116 240.477 181.731 241.429 182.529C242.381 183.327 243.144 184.293 243.718 185.427C244.292 186.561 244.593 187.827 244.621 189.227H240.631C240.519 188.345 240.302 187.547 239.98 186.833C239.659 186.106 239.232 185.483 238.7 184.965C238.168 184.447 237.531 184.048 236.789 183.768C236.061 183.474 235.235 183.327 234.312 183.327C233.57 183.327 232.842 183.432 232.128 183.642C231.428 183.852 230.805 184.167 230.259 184.587C229.699 185.007 229.251 185.525 228.916 186.141C228.594 186.757 228.433 187.47 228.433 188.282C228.447 189.164 228.671 189.913 229.104 190.529C229.538 191.131 230.091 191.642 230.763 192.062C231.421 192.481 232.135 192.831 232.905 193.111C233.689 193.391 234.424 193.636 235.109 193.846C236.243 194.196 237.377 194.623 238.511 195.127C239.645 195.617 240.68 196.247 241.618 197.017C242.542 197.73 243.284 198.605 243.844 199.641C244.418 200.677 244.705 201.874 244.705 203.231C244.705 204.603 244.397 205.8 243.781 206.822C243.179 207.844 242.395 208.69 241.429 209.362C240.463 210.048 239.372 210.566 238.154 210.916C236.936 211.252 235.718 211.42 234.5 211.42C233.045 211.42 231.61 211.175 230.196 210.685C228.797 210.195 227.579 209.488 226.543 208.564C225.619 207.767 224.884 206.836 224.338 205.772C223.806 204.694 223.52 203.497 223.478 202.182H227.446C227.572 203.133 227.831 203.98 228.223 204.722C228.615 205.45 229.118 206.066 229.734 206.57C230.35 207.088 231.057 207.48 231.855 207.746C232.667 207.998 233.549 208.124 234.5 208.124C235.256 208.124 235.998 208.033 236.726 207.851C237.468 207.655 238.126 207.354 238.7 206.948C239.274 206.556 239.743 206.059 240.106 205.457C240.47 204.841 240.652 204.113 240.652 203.273ZM260.515 211.42C258.919 211.42 257.449 211.147 256.105 210.601C254.776 210.055 253.635 209.292 252.683 208.312C251.731 207.333 250.989 206.171 250.458 204.827C249.926 203.483 249.66 202.021 249.66 200.439V199.557C249.66 197.723 249.954 196.086 250.542 194.644C251.129 193.188 251.913 191.957 252.893 190.949C253.859 189.955 254.958 189.192 256.189 188.66C257.435 188.128 258.709 187.862 260.011 187.862C261.648 187.862 263.076 188.149 264.294 188.723C265.526 189.283 266.548 190.06 267.359 191.054C268.171 192.062 268.773 193.244 269.165 194.602C269.571 195.96 269.774 197.43 269.774 199.011V200.754H253.544V200.901C253.642 202.007 253.859 202.979 254.195 203.819C254.545 204.659 255.021 205.401 255.623 206.045C256.238 206.731 256.98 207.27 257.848 207.662C258.716 208.054 259.675 208.25 260.725 208.25C262.11 208.25 263.342 207.97 264.42 207.41C265.498 206.85 266.394 206.108 267.107 205.184L269.48 207.032C268.724 208.18 267.59 209.201 266.079 210.097C264.581 210.979 262.726 211.42 260.515 211.42ZM260.011 191.054C259.227 191.054 258.485 191.201 257.785 191.495C257.085 191.775 256.455 192.188 255.896 192.733C255.336 193.293 254.86 193.979 254.468 194.791C254.09 195.589 253.824 196.513 253.67 197.562H265.89V197.374C265.89 196.674 265.757 195.925 265.491 195.127C265.225 194.315 264.854 193.615 264.378 193.027C263.902 192.439 263.3 191.964 262.572 191.6C261.858 191.236 261.005 191.054 260.011 191.054ZM291.19 187.862C291.904 187.862 292.646 187.911 293.416 188.009C294.199 188.107 294.787 188.24 295.179 188.408L294.654 192.208C293.898 192.041 293.178 191.922 292.492 191.852C291.82 191.768 291.113 191.726 290.371 191.726C289.419 191.726 288.558 191.845 287.789 192.083C287.019 192.306 286.347 192.642 285.773 193.09C285.255 193.482 284.8 193.965 284.408 194.539C284.03 195.099 283.715 195.729 283.463 196.429V211H279.558V188.282H283.253L283.421 191.327L283.442 191.894C284.366 190.648 285.472 189.668 286.76 188.954C288.062 188.226 289.538 187.862 291.19 187.862ZM309.876 211L300.533 188.282H304.522L311.031 205.415L311.388 206.822L311.766 205.415L318.128 188.282H322.096L312.837 211H309.876ZM337.99 211.42C336.395 211.42 334.925 211.147 333.581 210.601C332.251 210.055 331.111 209.292 330.159 208.312C329.207 207.333 328.465 206.171 327.933 204.827C327.401 203.483 327.135 202.021 327.135 200.439V199.557C327.135 197.723 327.429 196.086 328.017 194.644C328.605 193.188 329.389 191.957 330.369 190.949C331.334 189.955 332.433 189.192 333.665 188.66C334.911 188.128 336.185 187.862 337.486 187.862C339.124 187.862 340.552 188.149 341.77 188.723C343.001 189.283 344.023 190.06 344.835 191.054C345.647 192.062 346.249 193.244 346.641 194.602C347.047 195.96 347.25 197.43 347.25 199.011V200.754H331.02V200.901C331.118 202.007 331.334 202.979 331.67 203.819C332.02 204.659 332.496 205.401 333.098 206.045C333.714 206.731 334.456 207.27 335.324 207.662C336.192 208.054 337.15 208.25 338.2 208.25C339.586 208.25 340.818 207.97 341.896 207.41C342.973 206.85 343.869 206.108 344.583 205.184L346.956 207.032C346.2 208.18 345.066 209.201 343.554 210.097C342.056 210.979 340.202 211.42 337.99 211.42ZM337.486 191.054C336.702 191.054 335.961 191.201 335.261 191.495C334.561 191.775 333.931 192.188 333.371 192.733C332.811 193.293 332.335 193.979 331.943 194.791C331.565 195.589 331.299 196.513 331.146 197.562H343.365V197.374C343.365 196.674 343.232 195.925 342.966 195.127C342.7 194.315 342.329 193.615 341.854 193.027C341.378 192.439 340.776 191.964 340.048 191.6C339.334 191.236 338.48 191.054 337.486 191.054ZM368.666 187.862C369.379 187.862 370.121 187.911 370.891 188.009C371.675 188.107 372.263 188.24 372.655 188.408L372.13 192.208C371.374 192.041 370.653 191.922 369.967 191.852C369.295 191.768 368.589 191.726 367.847 191.726C366.895 191.726 366.034 191.845 365.264 192.083C364.494 192.306 363.822 192.642 363.249 193.09C362.731 193.482 362.276 193.965 361.884 194.539C361.506 195.099 361.191 195.729 360.939 196.429V211H357.034V188.282H360.729L360.897 191.327L360.918 191.894C361.842 190.648 362.948 189.668 364.235 188.954C365.537 188.226 367.014 187.862 368.666 187.862Z" fill="#171717"/>
<path d="M262.254 567V536.43H269.33C270.52 536.444 271.64 536.57 272.689 536.808C273.753 537.032 274.733 537.354 275.629 537.773C276.875 538.347 277.973 539.103 278.925 540.041C279.891 540.965 280.661 542.036 281.235 543.253C281.753 544.289 282.145 545.423 282.411 546.655C282.691 547.887 282.838 549.202 282.852 550.602V552.849C282.852 554.192 282.719 555.466 282.453 556.67C282.201 557.874 281.83 558.979 281.34 559.987C280.836 561.037 280.199 561.989 279.429 562.843C278.659 563.697 277.799 564.424 276.847 565.026C275.839 565.656 274.698 566.139 273.424 566.475C272.165 566.811 270.8 566.986 269.33 567H262.254ZM266.202 539.621V563.83H269.33C270.45 563.816 271.465 563.676 272.375 563.41C273.298 563.144 274.117 562.766 274.831 562.276C275.587 561.772 276.238 561.156 276.784 560.428C277.344 559.686 277.785 558.861 278.106 557.951C278.386 557.209 278.596 556.411 278.736 555.557C278.876 554.689 278.953 553.786 278.967 552.849V550.56C278.953 549.608 278.869 548.698 278.715 547.831C278.575 546.949 278.358 546.13 278.064 545.374C277.687 544.394 277.176 543.512 276.532 542.729C275.902 541.931 275.125 541.287 274.201 540.797C273.543 540.433 272.808 540.153 271.997 539.957C271.185 539.747 270.296 539.635 269.33 539.621H266.202ZM308.362 553.479C308.348 554.57 308.25 555.676 308.068 556.796C307.9 557.902 307.634 558.972 307.27 560.008C306.906 561.044 306.437 562.01 305.863 562.906C305.303 563.802 304.632 564.585 303.848 565.257C303.064 565.929 302.161 566.461 301.139 566.853C300.131 567.231 298.998 567.42 297.738 567.42C296.478 567.42 295.337 567.231 294.315 566.853C293.308 566.461 292.412 565.929 291.628 565.257C290.844 564.585 290.165 563.802 289.591 562.906C289.017 561.996 288.549 561.023 288.185 559.987C287.807 558.951 287.527 557.881 287.345 556.775C287.163 555.669 287.065 554.57 287.051 553.479V549.993C287.065 548.901 287.156 547.803 287.324 546.697C287.506 545.577 287.786 544.499 288.164 543.463C288.528 542.428 288.989 541.462 289.549 540.566C290.123 539.656 290.802 538.858 291.586 538.172C292.37 537.5 293.266 536.976 294.273 536.598C295.295 536.206 296.436 536.01 297.696 536.01C298.956 536.01 300.096 536.206 301.118 536.598C302.14 536.976 303.043 537.5 303.827 538.172C304.611 538.844 305.282 539.635 305.842 540.545C306.416 541.441 306.892 542.407 307.27 543.442C307.634 544.478 307.9 545.556 308.068 546.676C308.25 547.796 308.348 548.901 308.362 549.993V553.479ZM304.52 549.951C304.506 549.223 304.457 548.467 304.373 547.684C304.289 546.886 304.149 546.095 303.953 545.311C303.743 544.541 303.47 543.806 303.134 543.106C302.798 542.393 302.378 541.763 301.874 541.217C301.37 540.685 300.775 540.265 300.089 539.957C299.403 539.635 298.606 539.474 297.696 539.474C296.8 539.474 296.009 539.635 295.323 539.957C294.637 540.279 294.042 540.706 293.539 541.238C293.035 541.784 292.615 542.414 292.279 543.127C291.943 543.827 291.677 544.562 291.481 545.332C291.271 546.116 291.117 546.907 291.019 547.705C290.935 548.488 290.886 549.237 290.872 549.951V553.479C290.886 554.192 290.935 554.948 291.019 555.746C291.117 556.544 291.271 557.328 291.481 558.098C291.691 558.882 291.964 559.63 292.3 560.344C292.636 561.058 293.056 561.681 293.56 562.213C294.063 562.759 294.658 563.193 295.344 563.515C296.03 563.837 296.828 563.998 297.738 563.998C298.648 563.998 299.445 563.837 300.131 563.515C300.831 563.193 301.433 562.759 301.937 562.213C302.427 561.681 302.833 561.065 303.155 560.365C303.491 559.651 303.764 558.903 303.974 558.119C304.17 557.349 304.303 556.565 304.373 555.767C304.457 554.969 304.506 554.206 304.52 553.479V549.951ZM318.566 536.43L323.542 551.715L328.917 536.43H333.746V567H329.967V554.801L330.282 542.036L324.634 558.497H322.408L317.222 542.477L317.537 554.801V567H313.758V536.43H318.566Z" fill="#171717"/>
<path d="M674 784H518" stroke="#CCCCCC" stroke-width="5" stroke-linecap="round" stroke-dasharray="10 10"/>
<path d="M674 609V784" stroke="#CCCCCC" stroke-width="5" stroke-linecap="round" stroke-dasharray="10 10"/>
<path d="M300.5 329C300.5 327.619 299.381 326.5 298 326.5C296.619 326.5 295.5 327.619 295.5 329H298H300.5ZM296.232 405.768C297.209 406.744 298.791 406.744 299.768 405.768L315.678 389.858C316.654 388.882 316.654 387.299 315.678 386.322C314.701 385.346 313.118 385.346 312.142 386.322L298 400.464L283.858 386.322C282.882 385.346 281.299 385.346 280.322 386.322C279.346 387.299 279.346 388.882 280.322 389.858L296.232 405.768ZM298 329H295.5V404H298H300.5V329H298Z" fill="#CCCCCC"/>
<rect x="82.5" y="424.5" width="433" height="250" rx="21.5" fill="#F3F0EC" stroke="#171717" stroke-width="5"/>
<path d="M263.254 566V535.43H270.33C271.52 535.444 272.64 535.57 273.689 535.808C274.753 536.032 275.733 536.354 276.629 536.773C277.875 537.347 278.973 538.103 279.925 539.041C280.891 539.965 281.661 541.036 282.235 542.253C282.753 543.289 283.145 544.423 283.411 545.655C283.691 546.887 283.838 548.202 283.852 549.602V551.849C283.852 553.192 283.719 554.466 283.453 555.67C283.201 556.874 282.83 557.979 282.34 558.987C281.836 560.037 281.199 560.989 280.429 561.843C279.659 562.697 278.799 563.424 277.847 564.026C276.839 564.656 275.698 565.139 274.424 565.475C273.165 565.811 271.8 565.986 270.33 566H263.254ZM267.202 538.621V562.83H270.33C271.45 562.816 272.465 562.676 273.375 562.41C274.298 562.144 275.117 561.766 275.831 561.276C276.587 560.772 277.238 560.156 277.784 559.428C278.344 558.686 278.785 557.861 279.106 556.951C279.386 556.209 279.596 555.411 279.736 554.557C279.876 553.689 279.953 552.786 279.967 551.849V549.56C279.953 548.608 279.869 547.698 279.715 546.831C279.575 545.949 279.358 545.13 279.064 544.374C278.687 543.394 278.176 542.512 277.532 541.729C276.902 540.931 276.125 540.287 275.201 539.797C274.543 539.433 273.808 539.153 272.997 538.957C272.185 538.747 271.296 538.635 270.33 538.621H267.202ZM309.362 552.479C309.348 553.57 309.25 554.676 309.068 555.796C308.9 556.902 308.634 557.972 308.27 559.008C307.906 560.044 307.437 561.01 306.863 561.906C306.303 562.802 305.632 563.585 304.848 564.257C304.064 564.929 303.161 565.461 302.139 565.853C301.131 566.231 299.998 566.42 298.738 566.42C297.478 566.42 296.337 566.231 295.315 565.853C294.308 565.461 293.412 564.929 292.628 564.257C291.844 563.585 291.165 562.802 290.591 561.906C290.017 560.996 289.549 560.023 289.185 558.987C288.807 557.951 288.527 556.881 288.345 555.775C288.163 554.669 288.065 553.57 288.051 552.479V548.993C288.065 547.901 288.156 546.803 288.324 545.697C288.506 544.577 288.786 543.499 289.164 542.463C289.528 541.428 289.989 540.462 290.549 539.566C291.123 538.656 291.802 537.858 292.586 537.172C293.37 536.5 294.266 535.976 295.273 535.598C296.295 535.206 297.436 535.01 298.696 535.01C299.956 535.01 301.096 535.206 302.118 535.598C303.14 535.976 304.043 536.5 304.827 537.172C305.611 537.844 306.282 538.635 306.842 539.545C307.416 540.441 307.892 541.407 308.27 542.442C308.634 543.478 308.9 544.556 309.068 545.676C309.25 546.796 309.348 547.901 309.362 548.993V552.479ZM305.52 548.951C305.506 548.223 305.457 547.467 305.373 546.684C305.289 545.886 305.149 545.095 304.953 544.311C304.743 543.541 304.47 542.806 304.134 542.106C303.798 541.393 303.378 540.763 302.874 540.217C302.37 539.685 301.775 539.265 301.089 538.957C300.403 538.635 299.606 538.474 298.696 538.474C297.8 538.474 297.009 538.635 296.323 538.957C295.637 539.279 295.042 539.706 294.539 540.238C294.035 540.784 293.615 541.414 293.279 542.127C292.943 542.827 292.677 543.562 292.481 544.332C292.271 545.116 292.117 545.907 292.019 546.705C291.935 547.488 291.886 548.237 291.872 548.951V552.479C291.886 553.192 291.935 553.948 292.019 554.746C292.117 555.544 292.271 556.328 292.481 557.098C292.691 557.882 292.964 558.63 293.3 559.344C293.636 560.058 294.056 560.681 294.56 561.213C295.063 561.759 295.658 562.193 296.344 562.515C297.03 562.837 297.828 562.998 298.738 562.998C299.648 562.998 300.445 562.837 301.131 562.515C301.831 562.193 302.433 561.759 302.937 561.213C303.427 560.681 303.833 560.065 304.155 559.365C304.491 558.651 304.764 557.903 304.974 557.119C305.17 556.349 305.303 555.565 305.373 554.767C305.457 553.969 305.506 553.206 305.52 552.479V548.951ZM319.566 535.43L324.542 550.715L329.917 535.43H334.746V566H330.967V553.801L331.282 541.036L325.634 557.497H323.408L318.222 541.477L318.537 553.801V566H314.758V535.43H319.566Z" fill="#171717"/>
<circle cx="371" cy="784" r="125.5" fill="#F3F0EC" stroke="#171717" stroke-width="5"/>
<path d="M299.246 792.084H289.042L286.585 800H282.701L292.569 769.43H295.823L305.523 800H301.66L299.246 792.084ZM290.091 788.704H298.217L294.186 775.435L290.091 788.704ZM320.158 797.271C320.858 797.271 321.536 797.159 322.194 796.935C322.866 796.711 323.461 796.396 323.979 795.99C324.497 795.598 324.91 795.136 325.218 794.604C325.54 794.058 325.708 793.47 325.722 792.84H329.396C329.382 793.848 329.116 794.814 328.598 795.738C328.094 796.648 327.415 797.445 326.562 798.131C325.708 798.831 324.728 799.391 323.622 799.811C322.516 800.217 321.361 800.42 320.158 800.42C318.436 800.42 316.931 800.112 315.644 799.496C314.356 798.88 313.285 798.047 312.431 796.998C311.563 795.962 310.912 794.765 310.479 793.407C310.045 792.035 309.828 790.594 309.828 789.082V788.2C309.828 786.702 310.045 785.268 310.479 783.896C310.912 782.524 311.563 781.313 312.431 780.264C313.285 779.228 314.356 778.402 315.644 777.786C316.931 777.17 318.436 776.862 320.158 776.862C321.501 776.862 322.733 777.079 323.853 777.513C324.987 777.933 325.967 778.507 326.792 779.235C327.604 779.977 328.241 780.852 328.703 781.859C329.165 782.867 329.396 783.945 329.396 785.093H325.722C325.708 784.407 325.554 783.763 325.26 783.161C324.98 782.545 324.595 782.006 324.105 781.544C323.615 781.083 323.027 780.719 322.341 780.453C321.669 780.187 320.942 780.054 320.158 780.054C318.954 780.054 317.939 780.299 317.113 780.789C316.301 781.264 315.644 781.887 315.14 782.657C314.636 783.441 314.272 784.316 314.048 785.282C313.838 786.248 313.733 787.22 313.733 788.2V789.082C313.733 790.076 313.838 791.063 314.048 792.042C314.272 793.008 314.636 793.876 315.14 794.646C315.63 795.43 316.28 796.067 317.092 796.557C317.918 797.033 318.94 797.271 320.158 797.271ZM345.5 771.781V777.282H354.15V780.285H345.5V792.63C345.5 793.512 345.612 794.24 345.836 794.814C346.06 795.388 346.368 795.843 346.76 796.179C347.152 796.529 347.6 796.774 348.104 796.914C348.621 797.054 349.167 797.124 349.741 797.124C350.161 797.124 350.595 797.103 351.043 797.061C351.491 797.005 351.932 796.942 352.366 796.872C352.786 796.802 353.178 796.732 353.542 796.662C353.919 796.578 354.227 796.508 354.465 796.452L355.011 799.202C354.689 799.398 354.297 799.573 353.835 799.727C353.374 799.867 352.87 799.986 352.324 800.084C351.778 800.196 351.197 800.28 350.581 800.336C349.979 800.392 349.377 800.42 348.775 800.42C347.768 800.42 346.823 800.28 345.941 800C345.073 799.706 344.317 799.244 343.673 798.614C343.029 797.998 342.519 797.201 342.141 796.221C341.777 795.227 341.595 794.03 341.595 792.63V780.285H335.632V777.282H341.595V771.781H345.5ZM362.738 777.282H374.349V796.641H381.76V800H362.738V796.641H370.464V780.663H362.738V777.282ZM369.96 771.319C369.96 770.983 370.009 770.668 370.107 770.375C370.219 770.081 370.387 769.829 370.611 769.619C370.793 769.437 371.024 769.297 371.304 769.199C371.598 769.087 371.927 769.031 372.291 769.031C372.655 769.031 372.977 769.087 373.257 769.199C373.537 769.297 373.768 769.437 373.95 769.619C374.174 769.815 374.342 770.06 374.454 770.354C374.566 770.647 374.622 770.969 374.622 771.319C374.622 771.949 374.426 772.474 374.034 772.894C373.642 773.314 373.061 773.524 372.291 773.524C371.507 773.524 370.919 773.314 370.527 772.894C370.149 772.474 369.96 771.949 369.96 771.319ZM386.862 788.431C386.862 786.793 387.1 785.275 387.576 783.875C388.052 782.461 388.738 781.236 389.634 780.201C390.516 779.165 391.593 778.353 392.867 777.765C394.141 777.163 395.576 776.862 397.171 776.862C398.781 776.862 400.223 777.163 401.497 777.765C402.784 778.353 403.876 779.165 404.772 780.201C405.654 781.236 406.333 782.461 406.809 783.875C407.285 785.275 407.522 786.793 407.522 788.431V788.893C407.522 790.531 407.285 792.049 406.809 793.449C406.333 794.849 405.654 796.067 404.772 797.103C403.876 798.138 402.791 798.95 401.518 799.538C400.244 800.126 398.809 800.42 397.213 800.42C395.604 800.42 394.155 800.126 392.867 799.538C391.593 798.95 390.516 798.138 389.634 797.103C388.738 796.067 388.052 794.849 387.576 793.449C387.1 792.049 386.862 790.531 386.862 788.893V788.431ZM390.747 788.893C390.747 790.013 390.88 791.084 391.146 792.105C391.411 793.113 391.817 794.002 392.363 794.772C392.895 795.542 393.567 796.151 394.379 796.599C395.191 797.047 396.136 797.271 397.213 797.271C398.277 797.271 399.208 797.047 400.006 796.599C400.818 796.151 401.497 795.542 402.042 794.772C402.574 794.002 402.973 793.113 403.239 792.105C403.505 791.084 403.638 790.013 403.638 788.893V788.431C403.638 787.325 403.498 786.269 403.218 785.261C402.952 784.239 402.553 783.343 402.021 782.573C401.476 781.803 400.797 781.194 399.985 780.747C399.187 780.285 398.249 780.054 397.171 780.054C396.094 780.054 395.156 780.285 394.358 780.747C393.56 781.194 392.895 781.803 392.363 782.573C391.817 783.343 391.411 784.239 391.146 785.261C390.88 786.269 390.747 787.325 390.747 788.431V788.893ZM413.779 800V777.282H417.265L417.538 780.642C417.874 780.166 418.237 779.732 418.629 779.34C419.035 778.934 419.462 778.584 419.91 778.29C420.582 777.842 421.31 777.499 422.094 777.261C422.892 777.009 423.731 776.876 424.613 776.862C425.803 776.862 426.881 777.03 427.847 777.366C428.826 777.702 429.659 778.227 430.345 778.941C431.031 779.655 431.556 780.565 431.92 781.67C432.298 782.762 432.487 784.064 432.487 785.576V800H428.603V785.66C428.603 784.652 428.491 783.798 428.267 783.098C428.043 782.398 427.714 781.831 427.28 781.397C426.832 780.964 426.286 780.649 425.642 780.453C425.012 780.257 424.284 780.159 423.458 780.159C422.745 780.159 422.08 780.264 421.464 780.474C420.848 780.67 420.281 780.943 419.763 781.292C419.343 781.6 418.951 781.957 418.587 782.363C418.237 782.769 417.93 783.217 417.664 783.707V800H413.779ZM454.701 793.974C454.701 793.512 454.61 793.099 454.428 792.735C454.246 792.357 453.938 792.014 453.504 791.707C453.07 791.399 452.496 791.119 451.782 790.867C451.068 790.601 450.18 790.363 449.116 790.153C447.814 789.887 446.624 789.565 445.546 789.187C444.483 788.809 443.573 788.354 442.817 787.822C442.047 787.304 441.452 786.695 441.032 785.996C440.612 785.282 440.402 784.456 440.402 783.518C440.402 782.594 440.619 781.733 441.053 780.936C441.487 780.124 442.096 779.417 442.88 778.815C443.664 778.213 444.595 777.737 445.672 777.387C446.764 777.037 447.961 776.862 449.263 776.862C450.662 776.862 451.922 777.044 453.042 777.408C454.162 777.772 455.114 778.276 455.897 778.92C456.681 779.564 457.283 780.32 457.703 781.188C458.137 782.041 458.354 782.965 458.354 783.959H454.47C454.47 783.469 454.344 782.993 454.092 782.531C453.84 782.055 453.49 781.635 453.042 781.271C452.594 780.908 452.048 780.614 451.404 780.39C450.774 780.166 450.061 780.054 449.263 780.054C448.437 780.054 447.709 780.145 447.079 780.327C446.463 780.509 445.952 780.754 445.546 781.062C445.126 781.369 444.812 781.726 444.602 782.132C444.392 782.538 444.287 782.958 444.287 783.392C444.287 783.84 444.371 784.239 444.539 784.589C444.707 784.939 445 785.254 445.42 785.534C445.826 785.814 446.372 786.066 447.058 786.29C447.758 786.514 448.64 786.73 449.704 786.94C451.103 787.234 452.356 787.577 453.462 787.969C454.568 788.347 455.499 788.802 456.254 789.334C457.01 789.88 457.584 790.51 457.976 791.224C458.382 791.938 458.585 792.763 458.585 793.701C458.585 794.709 458.354 795.626 457.892 796.452C457.444 797.278 456.814 797.984 456.002 798.572C455.191 799.16 454.218 799.615 453.084 799.937C451.95 800.259 450.711 800.42 449.368 800.42C447.828 800.42 446.456 800.217 445.252 799.811C444.049 799.391 443.034 798.838 442.208 798.152C441.368 797.48 440.724 796.697 440.276 795.801C439.842 794.905 439.625 793.974 439.625 793.008H443.51C443.566 793.806 443.776 794.478 444.14 795.024C444.518 795.57 444.986 796.011 445.546 796.347C446.092 796.683 446.701 796.921 447.373 797.061C448.045 797.201 448.71 797.271 449.368 797.271C450.403 797.271 451.306 797.152 452.076 796.914C452.846 796.662 453.448 796.319 453.882 795.885C454.148 795.619 454.351 795.325 454.491 795.003C454.631 794.681 454.701 794.338 454.701 793.974Z" fill="#171717"/>
<path d="M674 611.5C675.381 611.5 676.5 610.381 676.5 609C676.5 607.619 675.381 606.5 674 606.5V609V611.5ZM526.232 607.232C525.256 608.209 525.256 609.791 526.232 610.768L542.142 626.678C543.118 627.654 544.701 627.654 545.678 626.678C546.654 625.701 546.654 624.118 545.678 623.142L531.536 609L545.678 594.858C546.654 593.882 546.654 592.299 545.678 591.322C544.701 590.346 543.118 590.346 542.142 591.322L526.232 607.232ZM668.786 606.5H666.286V611.5H668.786V609V606.5ZM658.357 611.5H660.857V606.5H658.357V609V611.5ZM647.929 606.5H645.429V611.5H647.929V609V606.5ZM637.5 611.5H640V606.5H637.5V609V611.5ZM627.071 606.5H624.571V611.5H627.071V609V606.5ZM616.643 611.5H619.143V606.5H616.643V609V611.5ZM606.214 606.5H603.714V611.5H606.214V609V606.5ZM595.786 611.5H598.286V606.5H595.786V609V611.5ZM585.357 606.5H582.857V611.5H585.357V609V606.5ZM574.929 611.5H577.429V606.5H574.929V609V611.5ZM564.5 606.5H562V611.5H564.5V609V606.5ZM554.071 611.5H556.571V606.5H554.071V609V611.5ZM543.643 606.5H541.143V611.5H543.643V609V606.5ZM533.214 611.5H535.714V606.5H533.214V609V611.5ZM674 609V606.5H668.786V609V611.5H674V609ZM658.357 609V606.5H647.929V609V611.5H658.357V609ZM637.5 609V606.5H627.071V609V611.5H637.5V609ZM616.643 609V606.5H606.214V609V611.5H616.643V609ZM595.786 609V606.5H585.357V609V611.5H595.786V609ZM574.929 609V606.5H564.5V609V611.5H574.929V609ZM554.071 609V606.5H543.643V609V611.5H554.071V609ZM533.214 609V606.5H528V609V611.5H533.214V609Z" fill="#CCCCCC"/>
<rect x="409" y="568" width="82" height="82" rx="18" fill="#CCCCCC"/>
</svg>
