<svg width="563" height="434" viewBox="0 0 563 434" fill="none" xmlns="http://www.w3.org/2000/svg">
<g clip-path="url(#clip0_1_267)">
<path d="M447.995 162.694C448.605 160.41 449.235 158.076 450.529 156.126C453.386 151.814 458.959 150.332 463.798 151.176C468.635 152.021 472.931 154.761 477.098 157.448C482.635 161.02 488.278 164.686 492.41 169.976C496.542 175.265 498.971 182.56 497.079 189.245C496.165 192.473 494.33 195.328 492.411 198.034C487.085 205.544 480.892 212.373 474.024 218.312C463.97 227.008 442.042 236.106 434.198 220.116C426.659 204.749 444.089 177.344 447.995 162.694Z" fill="#E43F20"/>
<path d="M100.795 198.581C98.7353 197.732 96.6326 196.854 94.9766 195.316C91.3113 191.91 90.6553 185.896 92.0806 180.869C93.5073 175.84 96.6366 171.554 99.7006 167.402C103.773 161.884 107.947 156.262 113.443 152.381C118.939 148.5 126.091 146.596 132.103 149.196C135.009 150.452 137.442 152.646 139.723 154.914C146.059 161.213 151.642 168.362 156.303 176.145C163.127 187.54 168.773 211.494 152.767 218.325C137.385 224.892 114.003 204.026 100.795 198.581Z" fill="#E43F20"/>
<path d="M347.703 136.098C338.41 125.949 329.486 114.6 327.341 100.382C325.09 85.4609 329.055 70.6169 336.093 57.3555C342.617 45.0662 354.549 35.4182 367.867 32.9502C375.366 31.5595 380.839 31.5355 387.59 32.6529C391.842 33.3569 391.306 33.2915 394.49 34.5422C395.917 35.1009 397.291 35.7902 398.662 36.4782C399.179 36.7382 403.922 39.7729 401.741 38.2329C420.169 51.2502 423.534 74.3583 417.721 97.3623C416.473 102.302 418.874 94.0422 417.231 98.8449C416.733 100.3 416.145 101.718 415.557 103.134C414.991 104.494 411.271 111.412 412.89 108.789C408.594 115.749 406.485 117.633 401.641 121.336C398.603 123.658 392.095 126.765 389.213 127.496C380.369 129.74 369.529 127.292 361.77 133.198C351.578 140.957 352.915 156.4 363.967 161.754C372.097 165.693 383.626 163.858 392.218 161.898C407.787 158.346 421.23 150.306 432.193 137.9C451.966 115.524 455.81 82.2342 448.324 54.1689C440.502 24.8329 416.513 3.27427 387.841 0.398268C351.146 -3.28306 318.277 18.8302 304.397 55.2542C291.289 89.6489 299.539 150.037 344.027 148.496C350.354 148.277 351.23 139.949 347.703 136.098Z" fill="#F3621B"/>
<path d="M189.275 151.102C170.852 139.53 152.696 130.406 151.439 106.112C150.17 81.5849 170.826 68.0743 190.488 65.3436C199.798 64.049 209.343 65.7836 215.402 70.1943C223.326 75.9623 227.276 86.8356 226.091 98.5823C224.706 112.322 217.655 124.301 209.047 134.436C204.792 139.445 199.607 143.372 194.18 146.813C193.098 147.501 189.462 149.186 187.402 150.604C185.639 151.693 185.514 151.774 187.024 150.848C184.899 152.005 183.331 153.145 181.374 154.296C190.468 160.276 199.563 166.256 208.658 172.234C208.674 172.142 208.688 172.049 208.704 171.957C207.404 174.909 206.104 177.861 204.804 180.813C205.09 180.458 205.375 180.105 205.661 179.753C216.43 166.422 202.652 142.621 186.62 151.178C183.547 152.818 180.027 154.322 178.052 157.564C170.035 170.717 176.232 189.752 193.014 187.833C202.546 186.745 207.966 181.418 214.61 177.474C222.738 172.65 229.794 165.489 236.136 158.338C250.096 142.601 260.135 120.66 261.395 99.1876C262.706 76.8556 255.324 54.7037 238.364 41.0983C223.91 29.505 205.151 26.1036 187.231 28.0383C148.622 32.205 117.616 63.717 116.34 105.285C115.203 142.312 148.014 183.164 185.143 175.741C197.543 173.262 199.618 157.598 189.275 151.102Z" fill="#F3621B"/>
<path d="M346.353 143.189C353.106 133.661 344.279 118.385 341.778 108.449C339.094 97.7837 337.031 86.629 338.143 75.761C339.134 66.0797 342.479 57.0597 349.245 50.969C359.294 41.9237 374.294 38.917 386.955 39.7717C415.299 41.685 423.593 68.9743 414.254 94.945C409.583 107.936 402.209 114.44 391.09 118.4C377.574 123.212 356.626 116.082 345.401 129.681C340.87 135.17 340.779 143.412 344.511 149.174C355.87 166.713 388.855 158.502 405.097 152.265C424.51 144.808 438.897 127.581 445.703 107.236C452.985 85.4664 453.545 62.361 443.377 41.961C434.161 23.4743 416.158 12.5104 397.009 9.20105C360.123 2.82638 320.541 23.361 312.283 64.009C308.87 80.8037 311.709 98.6757 316.537 114.616C318.791 122.064 322.827 130.332 327.457 136.354C331.006 140.973 340.642 151.246 346.353 143.189Z" fill="#F3621B"/>
<path d="M541.886 257.777C535.544 245.829 520.822 243.828 509.102 242.557C501.547 241.738 493.848 241.682 486.25 242.261C479.964 242.74 470.963 242.844 465.938 247.582C463.638 249.753 462.587 252.822 464.078 255.825C464.609 256.896 465.543 257.833 466.638 258.468C466.599 258.53 466.779 258.629 467.174 258.765C467.646 258.981 468.139 259.116 468.641 259.196C467.898 261.248 467.791 263.502 468.658 265.35C474.339 277.457 488.162 281.82 499.255 286.706C505.566 289.486 511.985 291.925 518.561 293.95C524.706 295.842 531.714 297.968 537.586 293.662C547.512 286.384 547.067 267.538 541.886 257.777Z" fill="#E43F20"/>
<path d="M456.517 353.81C452.035 347.718 446.969 341.653 439.562 339.87C437.41 339.353 435.701 340.697 434.909 342.542C433.683 342.073 432.395 341.693 430.991 341.481C425.662 340.67 420.086 345.57 420.859 351.578C423.041 368.526 426.627 385.318 431.777 401.472C434.178 409.005 436.417 418.489 443.823 422.121C451.294 425.784 460.059 422.602 465.727 416.654C476.954 404.873 474.39 387.426 468.029 374.161C464.671 367.157 461.078 360.008 456.517 353.81Z" fill="#E43F20"/>
<path d="M504.498 311.953C498.919 305.737 493.269 299.55 487.534 293.496C481.957 287.608 474.289 283.241 466.326 287.021C458.963 290.517 455.969 299.876 457.731 307.696C458.158 309.592 458.841 311.326 459.697 312.948C458.101 314.285 457.179 316.468 458.194 318.564C461.898 326.225 467.387 332.37 473.177 338.302C479.045 344.318 485.69 350.425 492.601 355.065C499.581 359.753 508.495 359.56 514.009 352.204C518.677 345.977 518.831 337.44 516.53 330.326C514.193 323.106 509.35 317.36 504.498 311.953Z" fill="#E43F20"/>
<path d="M186.964 371.514C185.827 362.946 178.735 354.388 169.826 357.609C168.759 357.102 167.46 357.128 166.266 358.022C159.834 362.849 155.05 370.357 150.7 377.212C146.171 384.35 142.307 392.132 139.182 400.052C136.198 407.617 134.819 415.665 138.662 423.034C142.234 429.886 148.956 433.813 156.37 433.617C173.306 433.172 179.524 412.09 183.704 397.958C186.184 389.572 188.128 380.272 186.964 371.514Z" fill="#E43F20"/>
<path d="M148.723 342.141C149.315 335.014 145.09 328.894 138.23 328.23C137.502 328.158 136.771 328.158 136.041 328.218C134.877 325.716 131.413 324.217 128.598 325.849C110.263 336.473 83.7206 347.878 79.41 372.574C77.3206 384.538 83.158 395.524 94.298 398.55C105.077 401.482 115.479 395.882 122.921 387.66C131.269 378.437 137.074 366.262 143.369 355.48C145.833 351.261 148.303 347.197 148.723 342.141Z" fill="#E43F20"/>
<path d="M128.446 299.98C129.553 294.629 127.002 289.16 122.491 286.713C122.087 286.494 121.679 286.337 121.273 286.17C120.883 284.26 119.703 282.472 117.978 281.374C110.363 276.534 99.2018 282.764 91.8725 286.281C83.6445 290.232 75.6632 294.937 68.1712 300.324C61.2658 305.288 52.6272 311.153 49.1605 319.545C45.4058 328.636 48.7925 340.093 58.2312 342.714C67.5112 345.294 76.7978 338.253 84.6992 333.777C93.1312 329.001 101.513 324.116 109.813 319.08C116.81 314.833 126.561 309.098 128.446 299.98Z" fill="#E43F20"/>
<path d="M336.201 122.957C334.805 134.637 336.406 147.038 337.185 158.684C337.595 164.822 346.365 166.568 348.655 160.608C351.809 152.405 354.15 144.233 355.461 135.486C351.289 135.966 347.117 136.446 342.945 136.928C343.987 140.217 343.778 143.185 342.849 146.521C341.242 152.288 348.898 157.073 353.129 153.28C357.482 149.377 360.047 145.044 361.634 139.284C357.255 138.549 352.877 137.814 348.498 137.08C347.963 143.362 346.869 149.578 344.887 155.569C343.867 158.653 344.15 161.956 346.611 164.128C348.751 166.017 352.638 166.469 354.903 164.374C360.854 158.872 366.045 152.797 370.333 145.761C366.33 143.841 362.326 141.922 358.323 140.004C356.759 146.222 354.154 152.016 350.901 157.465C349.059 160.553 350.802 165.045 353.422 166.729C356.558 168.742 359.879 167.838 362.467 165.18C369.118 158.348 375.73 151.473 382.357 144.616C378.495 142.041 374.634 139.465 370.773 136.889C367.874 144.956 363.254 151.686 356.663 156.828C359.317 160.812 361.971 164.794 364.625 168.777C371.703 162.066 379.107 155.789 386.837 149.949C383.742 146.398 380.649 142.848 377.554 139.297C372.727 146.436 365.751 152.172 361.925 159.974C359.663 164.585 364.27 168.154 368.177 167.124C376.755 164.858 383.218 155.952 388.155 148.652C392.655 141.998 385.682 132.854 378.874 138C371.146 143.84 363.742 150.116 356.663 156.828C353.833 159.512 352.617 163.678 354.931 167.152C357.069 170.36 361.555 171.172 364.625 168.777C373.043 162.21 379.622 153.338 383.341 142.988C386.245 134.902 377.486 129.332 371.755 135.261C365.129 142.118 358.486 148.958 351.883 155.841C355.738 158.412 359.594 160.984 363.45 163.554C367.354 156.906 370.026 149.817 371.867 142.276C372.719 138.788 370.217 135.12 367.183 134.208C363.643 133.142 360.801 134.937 358.887 138.126C355.667 143.496 351.607 148.476 347.135 152.714C350.474 155.649 353.813 158.585 357.15 161.52C359.47 154.222 361.073 146.938 361.634 139.284C362.303 130.168 350.831 128.209 348.498 137.08C348.01 138.933 346.953 140.678 345.575 141.944C349.002 144.196 352.429 146.449 355.855 148.702C357.353 143.074 356.979 137.314 355.163 131.896C353.054 125.6 343.563 126.482 342.647 133.337C341.662 140.71 340.133 148.27 337.75 155.317C341.574 155.958 345.397 156.598 349.221 157.24C347.965 145.668 347.39 133.146 344.001 122.058C342.785 118.084 336.706 118.726 336.201 122.957Z" fill="#E43F20"/>
<path d="M184.473 163.33C184.299 167.702 187.878 172.712 190.219 176.032C193.134 180.162 196.627 183.95 200.306 187.312C205.341 191.912 213.657 184.181 209.194 178.558C205.766 174.241 202.683 169.741 199.887 164.932C196.365 167.613 192.842 170.294 189.319 172.977C193.283 179.352 199.063 184.216 205.939 186.614C212.037 188.741 217.685 182.369 214.113 176.221C213.361 174.928 212.762 173.526 212.446 172.022C212.297 171.126 212.206 170.224 212.173 169.314C212.342 167.89 211.981 168.106 211.089 169.96C210.033 170.393 208.975 170.826 207.918 171.261C208.221 171.248 208.522 171.233 208.823 171.22C207.669 171.026 206.514 170.833 205.361 170.64C205.625 170.785 205.889 170.932 206.153 171.077C205.294 170.321 204.437 169.566 203.578 168.81C205.679 171.241 206.273 175.97 207.258 179.093C209.522 186.274 218.422 183.924 220.102 177.613C221.933 170.736 223.353 163.792 224.361 156.744C219.901 156.641 215.442 156.538 210.982 156.434C211.305 161.957 211.626 167.478 211.949 173C216.461 172.46 220.973 171.918 225.485 171.376C224.825 166.389 225.487 162.046 227.673 157.508C223.345 156.782 219.018 156.056 214.691 155.33C214.705 160.085 214.529 164.816 214.094 169.557C213.647 174.43 212.777 179.364 214.434 184.025C215.819 187.921 220.969 188.949 223.539 185.552C226.895 181.118 227.347 175.648 227.765 170.212C228.187 164.716 228.355 159.2 228.313 153.696C228.254 146.18 218.195 145.494 215.33 151.518C212.139 158.229 210.939 165.637 211.949 173C213.198 182.109 226.073 180.693 225.485 171.376C225.137 165.858 224.787 160.34 224.439 154.82C223.934 146.825 212.177 146.434 211.061 154.513C210.086 161.56 208.721 168.52 206.953 175.408C211.234 174.916 215.515 174.422 219.797 173.929C218.363 169.529 217.379 164.285 214.546 160.656C211.646 156.94 206.627 156.094 202.823 159.092C195.562 164.813 199.649 178.066 203.398 184.377C206.123 180.914 208.847 177.449 211.571 173.986C206.599 172.309 202.806 169.526 199.887 164.932C195.269 157.662 184.955 165.64 189.319 172.977C192.438 178.221 196.151 182.962 200.306 187.312C202.922 183.996 205.538 180.681 208.155 177.365C204.53 174.628 201.07 171.741 197.695 168.672C194.843 166.08 191.617 161.834 187.967 160.67C186.065 160.062 184.558 161.209 184.473 163.33Z" fill="#E43F20"/>
<path d="M218.953 183.025C217.095 176.9 214.274 171.178 212.586 164.98C210.907 158.816 210.675 152.837 210.559 146.434C210.383 136.693 195.303 136.253 194.293 146.06C192.639 162.125 197.97 181.9 211.353 190.534C215.749 193.37 220.281 187.402 218.953 183.025Z" fill="#E43F20"/>
<path d="M321.877 155.958C346.087 155.281 370.817 158.437 392.339 169.732C415.697 181.989 433.746 202.922 450.525 224.009C460.011 235.932 469.387 248.245 475.315 262.57C481.243 276.894 483.435 293.653 478.225 308.53C474.739 318.476 468.234 326.928 461.45 334.772C418.899 383.976 360.183 417.15 298.398 426.9C277.181 430.248 255.281 430.873 234.774 424.862C209.509 417.457 187.857 400.457 168.686 381.685C150.705 364.076 134.001 344.157 123.081 320.669C115.581 304.537 100.391 271.953 102.074 253.38C104.11 230.925 139.151 218.57 155.471 209.469C179.805 195.897 204.867 183.673 230.865 174.32C260.291 163.73 290.926 156.826 321.877 155.958Z" fill="#F3621B"/>
<path d="M421.497 252.22C422.233 259.205 425.487 265.121 430.035 270.073C434.481 274.914 442.347 280.068 447.577 272.908C451.723 267.23 449.946 258.216 446.378 252.91C442.673 247.398 436.537 243.512 430.049 243.308C424.83 243.144 420.317 247.593 422.206 253.404C422.799 255.225 423.642 256.677 425.19 257.724C431.653 262.092 438.959 255.24 435.138 247.93C435.005 247.676 434.871 247.421 434.738 247.166C435.147 248.341 435.555 249.514 435.963 250.689C435.915 250.406 435.867 250.125 435.818 249.842C433.699 252.597 431.579 255.35 429.459 258.104C431.203 258.133 433.171 259.401 434.333 260.685C435.107 261.541 435.902 262.745 436.351 263.834C436.542 264.324 436.715 264.82 436.874 265.322C436.89 267.13 437.213 266.861 437.842 264.513C438.838 264.104 439.834 263.697 440.831 263.288C441.453 263.238 438.955 261.58 438.539 261.249C437.158 260.153 435.845 258.933 434.667 257.597C432.463 255.094 430.621 252.072 428.863 249.204C426.669 245.624 421.054 248.024 421.497 252.22Z" fill="#F29016"/>
<path d="M407.707 253.601C407.685 253.508 407.663 253.413 407.641 253.32C407.191 251.388 404.738 250.494 403.118 251.197C400.113 252.5 398.049 255.614 398.499 259.102C398.947 262.573 402.173 265.762 405.611 265.35C408.695 264.982 410.919 261.065 411.513 258.162C412.111 255.237 411.59 252.012 409.794 249.709C408.082 247.514 405.149 246.98 403.025 249.07C400.99 251.074 401.069 254.4 403.106 256.294C403.614 256.768 403.254 256.266 403.127 256.29C403.27 256.265 403.434 256.958 403.174 256.3C403.271 256.548 403.37 256.806 403.43 257.068C403.255 256.308 403.329 257.462 403.393 256.977C403.454 256.502 403.33 257.34 403.317 257.422C403.206 258.09 403.545 256.882 403.305 257.51C403.277 257.584 402.938 258.268 403.113 257.954C403.306 257.608 402.553 258.378 403.049 257.968C404.01 257.722 404.971 257.478 405.934 257.233C404.489 257.18 405.981 257.237 405.762 257.409C405.491 257.621 405.809 256.761 405.669 257.469C405.607 257.782 405.921 257.968 405.549 258.164C406.938 257.432 408.046 255.998 407.843 254.26C407.818 254.037 407.773 253.817 407.707 253.601Z" fill="#F29016"/>
<path d="M416.17 275.202C411.634 274.485 409.019 281.176 412.505 284.136C414.458 285.794 417.305 285.178 419.253 283.732C421.311 282.202 422.459 279.822 422.401 277.201C422.347 274.852 420.093 273.306 418.057 273.466C416.051 273.624 413.693 273.476 412.043 274.925C409.77 276.922 410.093 280.181 412.563 281.676C414.379 282.773 416.797 282.126 418.791 281.888C417.343 280.644 415.897 279.398 414.449 278.153C414.506 279.133 414.263 277.296 414.466 278.229C414.393 278.6 414.403 278.621 414.495 278.294C414.538 278.074 414.644 277.888 414.814 277.738C414.428 278.294 415.103 277.596 414.78 277.814C414.567 277.972 414.631 277.946 414.973 277.74C414.651 277.862 414.619 277.884 414.875 277.805C414.842 277.67 416.758 278.16 417.199 278.785C417.526 279.25 417.633 279.762 417.555 280.338C417.63 279.78 417.256 280.969 417.147 281.098C416.854 281.449 415.257 281.884 415.903 281.88C417.461 281.87 418.715 280.118 418.755 278.602C418.798 276.958 417.758 275.453 416.17 275.202Z" fill="#F29016"/>
<path d="M163.241 230.902C154.411 227.456 145.441 232.394 140.278 240.45C139.042 242.377 138.614 245.641 140.779 247.112C151.451 254.361 167.723 249.972 172.822 236.744C174.194 233.186 172.426 229.734 168.986 228.897C163.107 227.466 152.215 228.304 150.929 236.302C150.497 238.992 152.183 241.02 154.502 241.664C156.949 242.345 158.706 241.222 160.966 240.364C163.062 239.565 164.981 239.541 167.13 239.966C165.851 237.35 164.573 234.736 163.294 232.12C160.613 239.958 152.398 243.396 145.597 239.133C146.297 241.221 146.998 243.31 147.698 245.398C150.962 239.909 157.463 236.989 163.053 235.166C164.807 234.596 164.957 231.572 163.241 230.902Z" fill="#F29016"/>
<path d="M146.875 239.278C146.282 240.437 146.215 241.928 146.623 243.137C147.139 244.665 148.411 245.765 149.917 246.044C152.017 246.432 153.983 245.093 154.457 242.852C154.65 241.934 154.395 240.75 153.858 240.014C153.458 239.469 152.981 239.029 152.383 238.732C152.306 238.693 152.229 238.662 152.154 238.616C152.421 238.793 152.687 238.972 152.955 239.15C152.909 239.117 152.866 239.081 152.825 239.04C153.038 239.284 153.25 239.528 153.463 239.772C153.386 239.684 153.325 239.585 153.261 239.485C153.409 239.782 153.557 240.08 153.703 240.376C153.659 240.285 153.631 240.209 153.609 240.109C153.681 240.441 153.751 240.774 153.823 241.106C153.813 241.045 153.807 240.982 153.81 240.92C153.795 241.273 153.781 241.626 153.766 241.981C153.774 241.88 153.787 241.794 153.813 241.698C153.711 242.037 153.61 242.374 153.509 242.712C153.527 242.65 153.55 242.59 153.578 242.532C153.985 241.586 154.05 240.433 153.713 239.47C153.405 238.588 152.665 237.672 151.829 237.314C150.93 236.932 149.871 236.804 148.946 237.234C148.025 237.662 147.361 238.333 146.875 239.278Z" fill="#F29016"/>
<path d="M149.481 261.445C149.147 261.868 148.834 262.352 148.658 262.873C149.023 262.409 149.389 261.945 149.754 261.484C148.278 262.448 148.001 264.496 148.471 266.078C148.707 266.869 149.215 267.694 149.826 268.212C151.443 269.585 153.733 269.705 155.489 268.444C156.735 267.548 157.609 266.077 157.862 264.513C158.221 262.293 157.337 259.785 155.242 258.984C153.814 258.436 152.341 258.581 151.167 259.733C150.114 260.769 149.575 262.568 150.158 264.006C150.194 264.097 150.219 264.178 150.239 264.274C150.167 263.933 150.094 263.594 150.021 263.254C150.094 263.809 150.217 264.348 150.346 264.892C150.271 264.542 150.197 264.194 150.121 263.845C150.154 264.028 150.165 264.205 150.159 264.392C150.174 264.024 150.189 263.654 150.203 263.285C150.186 263.509 150.15 263.729 150.091 263.946C150.197 263.598 150.301 263.252 150.405 262.904C150.347 263.078 150.279 263.236 150.186 263.392C150.363 263.098 150.539 262.806 150.717 262.513C150.657 262.598 150.598 262.673 150.527 262.75C150.762 262.518 150.998 262.286 151.233 262.056C151.158 262.125 151.087 262.18 151.002 262.234C151.281 262.074 151.559 261.914 151.838 261.754C151.746 261.801 151.663 261.832 151.566 261.86C151.874 261.78 152.182 261.7 152.489 261.618C152.422 261.633 152.354 261.642 152.286 261.644C152.61 261.652 152.934 261.657 153.258 261.665C153.146 261.662 153.049 261.652 152.941 261.626C153.246 261.722 153.551 261.82 153.857 261.917C153.759 261.884 153.678 261.848 153.589 261.794C153.846 261.966 154.103 262.137 154.361 262.309C154.051 262.081 154.194 261.965 154.69 262.733C154.421 262.316 155.127 263.67 154.919 263.2C154.354 261.924 153.521 261.212 152.227 260.853C152.938 261.32 153.649 261.788 154.361 262.256C154.897 263.293 154.685 262.945 154.593 262.665C154.451 262.237 154.75 263.566 154.686 263.082C154.522 261.83 153.789 260.818 152.635 260.45C151.517 260.096 150.257 260.465 149.481 261.445Z" fill="#F29016"/>
<path d="M452.314 132.386C449.451 116.31 452.155 99.321 458.406 84.161C462.877 73.3223 469.322 63.0796 478.374 56.1303C487.427 49.181 499.339 45.9023 509.865 49.2957C510.426 66.653 509.286 84.109 506.467 101.29C519.09 91.433 528.279 76.6823 531.837 60.5756C548.545 62.8983 561.309 79.5476 563.009 97.353C564.709 115.157 556.81 133.164 544.854 146.098C515.206 178.168 461.509 184.042 452.314 132.386Z" fill="#F3621B"/>
<path d="M72.9752 191.286C57.5419 192.853 41.9846 188.465 28.6072 180.5C19.0419 174.805 10.2939 167.08 4.9739 156.901C-0.347431 146.721 -1.85542 133.858 2.70325 123.06C19.0352 124.036 35.2339 126.817 50.9566 131.344C43.3806 117.136 30.7726 106.106 16.1512 100.9C20.5206 83.481 37.7899 71.5197 54.6886 71.3357C71.5886 71.1503 87.4166 81.1103 97.9619 94.8943C124.109 129.07 122.563 186.254 72.9752 191.286Z" fill="#F3621B"/>
<path d="M137.846 96.8729C126.103 136.633 162.938 171.498 199.019 169.026C240.558 166.181 258.051 104.046 233.455 73.3796C214.87 50.2076 183.855 45.8183 160.365 64.957C148.266 74.8143 141.114 85.8129 137.846 96.8729Z" fill="white"/>
<path d="M214.259 131.486C242.541 123.446 245.225 83.1889 218.046 72.3143C193.873 62.6449 168.042 91.089 181.966 115.536C188.955 127.805 200.135 135.501 214.259 131.486Z" fill="#100F0D"/>
<path d="M219.825 105.333C228.894 108.649 237.799 96.7543 232.119 88.225C227.571 81.397 217.735 80.3729 214.482 88.3396C211.774 94.9756 212.774 102.756 219.825 105.333Z" fill="white"/>
<path d="M319.623 68.0462C306.157 113.64 348.397 153.622 389.773 150.788C437.407 147.524 457.467 76.2729 429.262 41.1049C407.95 14.5315 372.383 9.49821 345.445 31.4462C331.571 42.7489 323.37 55.3622 319.623 68.0462Z" fill="white"/>
<path d="M407.25 107.737C439.681 98.5182 442.758 52.3529 411.591 39.8822C383.87 28.7942 354.25 61.4129 370.218 89.4462C378.231 103.517 391.053 112.342 407.25 107.737Z" fill="#100F0D"/>
<path d="M413.631 77.7475C424.031 81.5489 434.243 67.9089 427.73 58.1275C422.515 50.2982 411.234 49.1235 407.505 58.2609C404.398 65.8702 405.546 74.7915 413.631 77.7475Z" fill="white"/>
<path d="M328.714 202.569C330.078 202.417 331.419 202.37 332.734 202.452C339.046 202.844 341.366 211.51 339.147 217.434C332.209 235.949 319.283 255.866 298.069 259.828C286.038 262.074 273.393 257.698 264.451 249.124C259.342 244.224 246.349 227.148 250.041 218.714C254.253 209.093 275.395 216.716 283.173 216.685C298.69 216.624 314.867 204.122 328.714 202.569Z" fill="#8F1920"/>
</g>
<defs>
<clipPath id="clip0_1_267">
<rect width="563" height="434" fill="white"/>
</clipPath>
</defs>
</svg>
