<svg width="100" height="100" viewBox="0 0 100 100" fill="none" xmlns="http://www.w3.org/2000/svg">
<path d="M52.5 12C52.5 10.6193 51.3807 9.5 50 9.5C48.6193 9.5 47.5 10.6193 47.5 12H50H52.5ZM48.2322 88.7678C49.2085 89.7441 50.7915 89.7441 51.7678 88.7678L67.6777 72.8579C68.654 71.8816 68.654 70.2986 67.6777 69.3223C66.7014 68.346 65.1184 68.346 64.1421 69.3223L50 83.4645L35.8579 69.3223C34.8816 68.346 33.2986 68.346 32.3223 69.3223C31.346 70.2986 31.346 71.8816 32.3223 72.8579L48.2322 88.7678ZM50 12H47.5L47.5 87H50H52.5L52.5 12H50Z" fill="#CCCCCC"/>
</svg>
