<svg width="429" height="536" viewBox="0 0 429 536" fill="none" xmlns="http://www.w3.org/2000/svg">
<path d="M187.283 342.042C194.007 361.323 200.953 381.326 197.22 401.628C193.759 420.398 181.795 437.912 164.367 449.595C163.354 450.276 161.549 449.382 162.415 448.297C163.947 446.382 165.406 444.403 166.765 442.402C177.642 426.293 182.883 407.438 181.647 388.817C180.361 369.537 171.709 351.448 165.505 333.104C162.464 324.081 159.967 314.867 159.176 305.482C158.336 295.544 159.695 285.584 161.92 275.838C164.194 265.815 167.359 255.983 169.905 246.023C169.905 246.023 173.616 230.386 174.849 215.401C175.881 202.852 175.642 182.066 166.221 155.113C167.931 156.663 170.369 159.11 172.649 162.454C175.352 166.42 176.326 169.819 177.095 171.231C180.581 177.634 184.372 183.921 187.505 190.46C192.078 200.015 194.625 209.889 194.106 220.253C193.018 241.172 182.265 260.516 178.161 280.945C176.085 291.267 176.282 301.609 178.334 311.909C180.361 322.144 183.822 332.125 187.283 342.042Z" fill="#DB4B66" class="jellyfish-darker" />
<path d="M200.966 368.543C202.082 380.84 199.073 392.443 194.909 403.607C190.924 414.309 186.102 424.734 184.269 436.314C182.615 446.716 183.293 458.319 189.39 466.686C190.107 467.657 189.211 469.229 188.194 468.513C186.222 467.103 184.369 465.484 182.715 463.612C175.961 455.985 172.135 444.82 172.733 433.887C173.37 421.984 179.567 412.136 184.05 401.805C186.361 396.488 188.274 390.755 188.394 384.7C188.493 379.453 187.218 374.345 185.226 369.652C181.061 359.852 174.506 351.808 169.784 342.401C167.413 337.663 165.54 332.577 164.743 327.145C163.946 321.69 164.145 316.12 164.962 310.688C166.715 299.038 170.959 288.175 174.048 276.988C177.156 265.754 179.049 254.012 175.961 242.501C172.832 230.92 166.158 221.236 161.216 210.695C158.785 205.541 156.693 200.086 155.657 194.308C154.641 188.667 154.541 182.866 155.278 177.156C156.653 166.524 161.057 156.469 167.752 149.026C166.975 150.911 165.967 153.659 165.141 157.093C161.252 173.276 165.555 187.524 167.313 193.106C170.655 203.715 170.003 203.622 181.958 221.605C187.398 229.788 191.741 238.525 192.14 249.088C192.518 259.028 189.948 268.759 187.318 278.097C184.608 287.62 181.46 297.259 180.743 307.313C180.404 312.167 180.703 317.044 181.938 321.714C183.413 327.215 186.222 332.022 189.071 336.668C192.06 341.5 195.049 346.307 197.141 351.785C199.153 357.101 200.448 362.741 200.966 368.543Z" fill="#E26477" class="jellyfish-main" />
<path d="M166.277 277.015C167.957 285.665 167.837 294.48 166.352 303.133C164.847 311.956 161.722 320.303 158.101 328.617C156.313 332.72 154.576 336.865 153.511 341.145C152.381 345.746 152.267 350.431 152.721 355.105C153.626 364.324 156.257 373.358 156.224 382.641C156.206 391.56 154.306 400.413 150.686 408.749C150.129 410.038 148.04 409.613 148.298 408.246C148.681 406.066 148.816 403.849 148.729 401.659C148.325 392.663 144.373 384.146 141.608 375.583C140.277 371.396 139.191 367.14 138.772 362.806C138.324 358.367 138.543 353.892 139.134 349.473C140.361 340.421 143.176 331.592 145.62 322.77C148.179 313.606 150.142 304.389 150.195 294.937C150.223 285.484 148.668 276.045 145.542 266.979C142.472 258.124 137.734 249.773 134.81 240.873C132.159 232.861 131.58 224.656 132.681 216.416C133.16 212.832 133.755 209.67 134.466 206.705C135.736 201.406 137.076 197.73 138.858 192.785C138.858 192.785 141.396 185.746 144.925 175.691C147.184 169.256 149.881 159.969 151.552 147.878C154.338 171.431 152.174 188.965 149.548 200.862C147.869 208.465 145.51 216.937 147.589 228.512C149.117 237.016 153.176 244.999 157.06 252.878C160.918 260.716 164.628 268.598 166.277 277.015Z" fill="#DB4B66" class="jellyfish-darker" />
<path d="M217.174 375.017C214.699 385.063 211.878 395.293 212.942 405.705C213.882 415.043 217.842 424.013 224.03 431.428C224.92 432.481 223.064 433.671 222.099 432.801C220.243 431.177 218.436 429.506 216.704 427.79C209.923 421.085 203.909 413.326 201.137 404.401C197.92 393.988 200.444 383.392 203.092 373.14C205.988 362.018 208.067 350.804 208.883 339.384C209.675 328.33 209.725 317.071 207.151 306.201C202.597 287.091 191.535 269.951 186.783 250.888C184.531 241.825 184.085 232.648 185.669 223.471C187.595 212.315 190.818 204.634 194.158 197.108C199.033 186.123 205.678 170.098 212.843 149.026C210.204 173.144 206.498 191.299 203.439 203.859C201.815 210.523 199.394 219.433 200.073 231.595C200.592 240.909 203.117 249.995 206.26 258.829C212.645 276.725 221.555 293.957 223.93 312.861C226.579 333.732 222.173 354.718 217.174 375.017Z" fill="#E0586F" class="jellyfish-dark" />
<path d="M276.878 363.956C275.45 369.118 274.495 374.376 274.629 379.694C274.765 385.865 276.306 391.898 277.895 397.887C280.599 408.087 283.417 418.797 280.068 429.153C278.53 433.934 275.619 438.299 271.317 441.609C266.798 445.115 261.277 447.388 255.699 449.385C254.328 449.863 253.608 448.112 254.701 447.449C256.718 446.255 258.529 444.809 260.112 443.177C267.066 435.935 268.673 426.021 267.61 416.955C266.259 405.681 261.268 395.084 258.514 384.055C257.193 378.762 256.338 373.352 256.67 367.917C257.007 362.672 258.511 357.572 260.365 352.593C262.219 347.613 264.372 342.711 265.877 337.654C267.473 332.317 268.397 326.848 268.578 321.351C268.974 310.635 266.417 300.388 262.21 290.37C258.188 280.773 253.183 271.369 251.149 261.238C247.177 241.742 257.599 223.991 264.327 205.895C270.169 190.182 269.714 184.243 269.142 176.795C268.194 164.44 263.448 154.572 259.529 148.121C264.66 151.162 277.759 159.851 282.341 174.947C287.002 190.302 280.522 204.376 279.267 206.862C276.443 212.46 273.118 217.877 270.594 223.596C268.163 229.099 266.606 234.903 266.064 240.769C265.007 252.522 268.064 263.758 273.749 274.403C278.935 284.081 285.494 293.344 288.747 303.703C291.892 313.766 290.689 323.968 287.6 333.915C284.441 344.033 279.713 353.76 276.878 363.956Z" fill="#E26477" class="jellyfish-main" />
<path d="M209.338 404.634C208.582 418.305 212.238 431.099 217.123 443.375C221.797 455.144 227.362 466.583 229.753 479.382C231.908 490.878 231.599 503.768 225.342 513.208C224.606 514.304 225.627 516.024 226.695 515.203C228.766 513.588 230.701 511.744 232.412 509.624C239.404 500.987 243.116 488.503 242.077 476.39C240.96 463.201 233.938 452.438 228.74 441.093C226.062 435.256 223.796 428.946 223.449 422.231C223.152 416.413 224.339 410.713 226.313 405.456C230.438 394.475 237.2 385.382 241.94 374.823C244.32 369.505 246.151 363.815 246.812 357.768C247.472 351.696 247.056 345.522 245.981 339.517C243.673 326.639 238.714 314.698 234.987 302.368C231.236 289.986 228.775 277.009 231.681 264.16C234.628 251.232 241.459 240.314 246.394 228.493C248.823 222.712 250.876 216.606 251.782 210.169C252.672 203.886 252.569 197.447 251.569 191.133C249.705 179.374 244.604 168.334 237.132 160.251C238.035 162.321 239.22 165.344 240.232 169.132C245.002 186.983 240.887 202.901 239.198 209.139C235.987 220.995 236.685 220.874 224.473 241.135C218.917 250.354 214.56 260.159 214.513 271.888C214.465 282.924 217.583 293.652 220.75 303.943C224.01 314.437 227.745 325.048 228.881 336.183C229.421 341.559 229.276 346.977 228.116 352.189C226.728 358.331 223.88 363.737 220.982 368.965C217.941 374.402 214.9 379.812 212.847 385.944C210.874 391.895 209.685 398.185 209.338 404.634Z" fill="#DB4B66" class="jellyfish-darker" />
<path d="M212.795 290.251C210.983 299.278 211.124 308.479 212.744 317.511C214.386 326.721 217.786 335.436 221.723 344.117C223.667 348.401 225.555 352.729 226.715 357.197C227.946 362 228.075 366.89 227.588 371.768C226.617 381.39 223.775 390.817 223.821 400.505C223.851 409.815 225.922 419.056 229.858 427.76C230.464 429.106 232.729 428.665 232.448 427.237C232.03 424.962 231.881 422.648 231.973 420.362C232.401 410.973 236.676 402.087 239.666 393.152C241.104 388.783 242.277 384.342 242.727 379.819C243.207 375.186 242.965 370.515 242.318 365.902C240.977 356.453 237.914 347.235 235.252 338.026C232.467 328.458 230.327 318.837 230.259 308.971C230.217 299.105 231.892 289.253 235.272 279.794C238.592 270.554 243.721 261.842 246.882 252.555C249.748 244.195 250.367 235.632 249.163 227.03C248.639 223.289 247.99 219.988 247.215 216.893C245.831 211.361 244.375 207.523 242.435 202.36C242.435 202.36 239.675 195.012 235.836 184.514C233.378 177.795 230.442 168.1 228.615 155.479C225.621 180.059 227.989 198.362 230.851 210.781C232.681 218.719 235.249 227.563 233.008 239.642C231.361 248.518 226.967 256.846 222.764 265.066C218.589 273.243 214.574 281.468 212.795 290.251Z" fill="#E26477" class="jellyfish-main" />
<path d="M312.893 152.688C311.506 136.026 306.283 119.592 297.579 104.783C289.393 90.8703 278.125 78.4979 264.81 68.1881C251.589 57.9199 236.346 49.6721 220.02 43.8608C212.365 41.1459 204.477 38.9665 196.445 37.3286C142.53 42.762 115.829 84.5822 110.231 93.3508C93.7857 119.114 82.4464 160.642 101.157 174.485C106.487 178.428 114.302 180.357 125.311 179.307C150.859 178.494 176.194 174.662 201.79 175.039C259.274 175.887 287.181 193.904 312.08 177.738C313.331 169.45 313.596 161.04 312.893 152.688Z" fill="#E86776" class="jellyfish-light" />
<path d="M323.526 166.685C343.11 137.711 316.702 86.8447 278.83 60.4611C270.528 54.6775 239.521 33.0758 196.684 37.2999C196.603 37.3081 196.526 37.3207 196.445 37.3289C204.477 38.9668 212.365 41.1461 220.02 43.8611C236.346 49.6722 251.589 57.9202 264.81 68.1883C278.125 78.4982 289.393 90.8705 297.579 104.784C306.283 119.593 311.506 136.026 312.893 152.688C313.596 161.041 313.331 169.45 312.08 177.738C312.871 177.224 313.66 176.677 314.446 176.093C319.224 172.54 322.052 168.867 323.526 166.685Z" fill="#E86776" class="jellyfish-light" />
<path opacity="0.4" d="M358.813 206.258C356.648 199.417 351.894 193.594 346.157 187.575C342.075 183.294 341.275 183.419 339.993 181.264C334.683 172.335 342.512 160.249 344.698 156.271C359.226 129.837 331.174 85.8981 328.231 81.2892C304.239 43.7094 263.481 30.2799 252.954 27.1358C242.846 24.1174 193.205 10.4788 143.985 34.6947C143.453 34.956 142.922 35.1966 142.39 35.4671C105.261 54.3614 90.6237 83.9231 85.9319 93.786C74.6717 117.457 64.9954 158.564 81.2271 177.099C83.2929 179.458 86.9941 182.829 87.272 188C87.899 199.673 70.1547 203.874 69.4651 216.672C69.1062 223.333 73.4675 230.449 79.698 233.168C86.6289 236.193 94.7832 233.576 101.058 230.815C108.586 227.503 115.055 222.254 123.03 219.755C129.969 217.589 137.897 217.38 142.813 222.963C147.691 228.5 146.319 232.428 151.823 237.396C157.707 242.707 169.261 244.765 177.676 241.666C190.563 236.921 189.395 222.548 204.117 216.797C209.908 214.536 213.699 215.285 214.892 215.694C218.114 216.797 220.608 219.172 222.819 221.442C227.689 226.42 231.97 231.606 238.957 234.439C245.967 237.292 254.036 238 261.517 236.189C269.515 234.272 275.325 229.315 281.206 224.441C290.741 216.54 297.827 214.858 304.331 215.881C311.852 217.064 311.571 222.591 321.174 227.086C328.034 230.298 340.122 233.05 349.021 228.7C349.968 228.238 350.891 227.719 351.755 227.086C358.444 222.193 360.948 213.009 358.813 206.258Z" fill="#171717" fill-opacity="0.1"/>
</svg>
